<svg xmlns="http://www.w3.org/2000/svg" version="1.1" xmlns:xlink="http://www.w3.org/1999/xlink" width="512" height="512" x="0" y="0" viewBox="0 0 512 512" style="enable-background:new 0 0 512 512" xml:space="preserve" class=""><g><path d="M69.625 395.781V504.5M193.875 162.812v18.562c0 6.904-5.596 12.5-12.5 12.5h-6.062M211.29 211.291c-18.196 18.196-47.698 18.196-65.894 0" style="stroke-width:15;stroke-linecap:round;stroke-linejoin:round;stroke-miterlimit:10;" fill="none" stroke="#00BBFF" stroke-width="15" stroke-linecap="round" stroke-linejoin="round" stroke-miterlimit="10" data-original="#00BBFF" class=""></path><path d="M99.274 44.621c-7.276 12.403-11.078 27.05-10.109 42.557l5.482 87.714 37.102-74.205h25.883a49.997 49.997 0 0 0 35.355-14.645l16.418-16.418 52.634 105.267 7.142-114.273c1.8-28.784-21.06-53.118-49.902-53.118h-55.26c-14.271 0-27.566 3.972-38.88 10.846M162.812 349.188l-9.121 91.215 24.653 64.097 24.653-64.097-9.122-91.215M193.875 349.188h-31.063l-15.531-46.594h62.125z" style="stroke-width:15;stroke-linecap:round;stroke-linejoin:round;stroke-miterlimit:10;" fill="none" stroke="#00BBFF" stroke-width="15" stroke-linecap="round" stroke-linejoin="round" stroke-miterlimit="10" data-original="#00BBFF" class=""></path><path d="M260.291 199.728h2.177c14.3 0 26.613-10.094 29.417-24.117l4.064-20.321c2.96-14.802-11.174-27.279-25.494-22.506l-5.907 1.969M92.139 134.753l-5.907-1.969c-14.32-4.773-28.454 7.704-25.494 22.506l4.064 20.321c2.804 14.023 15.117 24.117 29.417 24.117h2.177" style="stroke-width:15;stroke-linecap:round;stroke-linejoin:round;stroke-miterlimit:10;" fill="none" stroke="#00BBFF" stroke-width="15" stroke-linecap="round" stroke-linejoin="round" stroke-miterlimit="10" data-original="#00BBFF" class=""></path><path d="m94.648 174.892 1.196 19.134c2.723 43.565 38.85 77.505 82.5 77.505h0c43.65 0 79.777-33.94 82.5-77.505l1.196-19.134M110.675 328.56l-9.987-25.966h46.593M153.691 440.403l-30.321-78.834M202.997 440.403 256 302.594h-46.594M178.344 504.5h154.781M100.688 302.602s-29.972.015-30.344.027h-.01C35.438 303.772 7.5 332.42 7.5 367.594V504.5h170.844M256 302.602s29.972.015 30.344.027h.01c18.934.62 35.82 9.337 47.306 22.801M364.719 256h108.719l-31.063 46.594 31.063 46.594H364.719M287.062 395.781V504.5M444.152 187.924c-10.214 3.847-21.281 5.951-32.84 5.951-19.053 0-36.77-5.718-51.529-15.531h-26.127v-26.127c-9.813-14.759-15.531-32.476-15.531-51.529 0-51.466 41.721-93.188 93.188-93.188S504.5 49.221 504.5 100.688c0 27.598-11.997 52.394-31.06 69.457" style="stroke-width:15;stroke-linecap:round;stroke-linejoin:round;stroke-miterlimit:10;" fill="none" stroke="#00BBFF" stroke-width="15" stroke-linecap="round" stroke-linejoin="round" stroke-miterlimit="10" data-original="#00BBFF" class=""></path><path d="M333.656 411.312V240.469h31.063v170.843M318.125 456.438c0 9.389-7.611 17-17 17h-14.062v-42.125c0-11.046 8.954-20 20-20h26.062" style="stroke-width:15;stroke-linecap:round;stroke-linejoin:round;stroke-miterlimit:10;" fill="none" stroke="#00BBFF" stroke-width="15" stroke-linecap="round" stroke-linejoin="round" stroke-miterlimit="10" data-original="#00BBFF" class=""></path><path d="M380.781 504.5h-47.656c-8.284 0-15-6.716-15-15v-63.188c0-8.284 6.716-15 15-15h47.656c8.284 0 15 6.716 15 15V489.5c0 8.284-6.715 15-15 15zM318.125 442.375h31.063M318.125 473.438h31.063M473.438 110.245V91.13l-11.88-5.94a52.236 52.236 0 0 0-3.76-9.068L462 63.517 448.483 50l-12.605 4.202a52.236 52.236 0 0 0-9.068-3.76l-5.94-11.88h-19.115l-5.94 11.88a52.236 52.236 0 0 0-9.068 3.76L374.142 50l-13.517 13.517 4.202 12.605a52.314 52.314 0 0 0-3.76 9.068l-11.88 5.94v19.115l11.88 5.94a52.236 52.236 0 0 0 3.76 9.068l-4.202 12.605 13.517 13.517 12.605-4.202a52.314 52.314 0 0 0 9.068 3.76l5.94 11.88h19.115l5.94-11.88a52.236 52.236 0 0 0 9.068-3.76l12.605 4.202L462 137.858l-4.202-12.605a52.314 52.314 0 0 0 3.76-9.068l11.88-5.94z" style="stroke-width:15;stroke-linecap:round;stroke-linejoin:round;stroke-miterlimit:10;" fill="none" stroke="#00BBFF" stroke-width="15" stroke-linecap="round" stroke-linejoin="round" stroke-miterlimit="10" data-original="#00BBFF" class=""></path><path d="m391.899 96.804 15.531 15.532 23.296-23.297" style="stroke-width:15;stroke-linecap:round;stroke-linejoin:round;stroke-miterlimit:10;" fill="none" stroke="#00BBFF" stroke-width="15" stroke-linecap="round" stroke-linejoin="round" stroke-miterlimit="10" data-original="#00BBFF" class=""></path></g></svg>