<svg xmlns="http://www.w3.org/2000/svg" version="1.1" xmlns:xlink="http://www.w3.org/1999/xlink" width="512" height="512" x="0" y="0" viewBox="0 0 64 64" style="enable-background:new 0 0 512 512" xml:space="preserve" class=""><g><g fill="none" stroke="#00ffff" stroke-linejoin="round" stroke-miterlimit="10" stroke-width="2"><path d="M30.17 52.85H10.01c-1.08 0-1.95.87-1.95 1.95v6.79c0 1.07.87 1.95 1.95 1.95h28.8c.37 0 .72-.11 1.01-.28M30.17 52.85H6.83c-1.07 0-1.95-.88-1.95-1.95v-6.8c0-1.07.88-1.95 1.95-1.95H31.6M40.76 35.08v-1.67c0-1.07-.88-1.95-1.95-1.95h-28.8c-1.08 0-1.95.88-1.95 1.95v6.79c0 1.08.87 1.95 1.95 1.95H31.6" fill="" opacity="1"></path><circle cx="44.43" cy="49.31" r="14.69" transform="rotate(-1.9 44.816 49.71)" fill="" opacity="1"></circle><g stroke-linecap="round"><path d="M41.28 52.46a3.15 3.15 0 1 0 3.15-3.15 3.15 3.15 0 1 1 3.15-3.15M44.43 43.01v-1.37M44.43 56.99v-1.38M16.92 10.69v16.13M13.08 14.53l3.84-3.84 3.83 3.84M32.32 2v13.51M28.49 5.83 32.33 2l3.83 3.83M49.54 15.51v13.52M45.71 19.35l3.83-3.84 3.83 3.84" fill="" opacity="1"></path></g></g></g></svg>