<svg xmlns="http://www.w3.org/2000/svg" version="1.1" xmlns:xlink="http://www.w3.org/1999/xlink" width="512" height="512" x="0" y="0" viewBox="0 0 64 64" style="enable-background:new 0 0 512 512" xml:space="preserve" class=""><g transform="matrix(1.1500BBFF00BBFF01,0,0,1.1500BBFF00BBFF01,-4.799936985969545,-4.800374507904053)"><g data-name="Business Execution"><path d="M15.956 23.184a6.942 6.942 0 1 1 9.102 3.677 6.95 6.95 0 0 1-9.102-3.677Zm4.459-7.261a4.942 4.942 0 1 0 6.48 2.617 4.947 4.947 0 0 0-6.48-2.617Z" fill="#00BBFF" opacity="1" data-original="#00BBFF" class=""></path><path d="M19.1 33.472a20.537 20.537 0 0 1-3.057-1.118 1.492 1.492 0 0 1-.92-1.592l.278-1.995a10.734 10.734 0 0 1-1.297-1.287l-1.957.308a1.49 1.49 0 0 1-1.607-.892l-1.054-2.479a1.493 1.493 0 0 1 .478-1.778l1.604-1.212a10.777 10.777 0 0 1-.006-1.828l-1.6-1.165a1.493 1.493 0 0 1-.508-1.769l1.01-2.496a1.487 1.487 0 0 1 1.593-.921l1.994.278a10.76 10.76 0 0 1 1.286-1.297l-.308-1.956a1.491 1.491 0 0 1 .892-1.608l2.48-1.052a1.494 1.494 0 0 1 1.778.476l1.212 1.605a10.821 10.821 0 0 1 1.827-.006l1.165-1.6a1.494 1.494 0 0 1 1.77-.507l2.496 1.008a1.492 1.492 0 0 1 .92 1.593l-.278 1.994a10.732 10.732 0 0 1 1.298 1.287l1.955-.308a1.495 1.495 0 0 1 1.608.892l1.053 2.48a1.495 1.495 0 0 1-.475 1.776l-1.607 1.213a10.786 10.786 0 0 1 .007 1.829l1.6 1.164a1.493 1.493 0 0 1 .507 1.768l-1.01 2.498a1.503 1.503 0 0 1-1.593.92l-1.992-.278a10.768 10.768 0 0 1-1.288 1.297l.31 1.955a1.495 1.495 0 0 1-.893 1.61l-2.48 1.051a1.49 1.49 0 0 1-1.778-.476L23.3 31.249a10.82 10.82 0 0 1-1.827.006l-1.165 1.6a1.494 1.494 0 0 1-1.208.617Zm-1.943-2.825 1.766.714 1.274-1.751a1.005 1.005 0 0 1 .947-.403 8.753 8.753 0 0 0 2.466-.007 1.01 1.01 0 0 1 .942.387l1.32 1.748 1.754-.744-.338-2.138a1.001 1.001 0 0 1 .386-.954 8.757 8.757 0 0 0 1.737-1.75.987.987 0 0 1 .94-.392l2.17.303.713-1.766-1.75-1.274a1 1 0 0 1-.402-.945 8.773 8.773 0 0 0-.008-2.468 1.001 1.001 0 0 1 .387-.942l1.749-1.32-.744-1.753-2.139.337a.999.999 0 0 1-.953-.385 8.754 8.754 0 0 0-1.75-1.737.999.999 0 0 1-.393-.94l.303-2.171-1.765-.714-1.275 1.751a1 1 0 0 1-.946.403 8.735 8.735 0 0 0-2.467.008 1.005 1.005 0 0 1-.941-.388l-1.32-1.748-1.754.743.337 2.14a1 1 0 0 1-.384.951 8.797 8.797 0 0 0-1.738 1.751.996.996 0 0 1-.94.393l-2.171-.303-.713 1.766 1.75 1.274a.998.998 0 0 1 .402.945 8.814 8.814 0 0 0 .008 2.468.999.999 0 0 1-.387.942l-1.749 1.32.746 1.753 2.137-.337a.999.999 0 0 1 .952.384 8.781 8.781 0 0 0 1.752 1.739 1 1 0 0 1 .393.94ZM46 25.2a4.729 4.729 0 1 1 4.729-4.728A4.734 4.734 0 0 1 46 25.2Zm0-7.457a2.729 2.729 0 1 0 2.729 2.729A2.731 2.731 0 0 0 46 17.743Z" fill="#00BBFF" opacity="1" data-original="#00BBFF" class=""></path><path d="M46.938 30.412h-1.944a1.352 1.352 0 0 1-1.317-1.033l-.316-1.258a8.019 8.019 0 0 1-.973-.409l-1.094.656a1.353 1.353 0 0 1-1.66-.205l-1.373-1.374a1.357 1.357 0 0 1-.206-1.657l.67-1.118a7.885 7.885 0 0 1-.399-.977l-1.238-.31a1.354 1.354 0 0 1-1.027-1.316v-1.945a1.355 1.355 0 0 1 1.029-1.318l1.26-.315a8.148 8.148 0 0 1 .41-.974l-.656-1.093a1.358 1.358 0 0 1 .204-1.66l1.375-1.374a1.356 1.356 0 0 1 1.659-.204l1.115.669a8.161 8.161 0 0 1 .978-.4l.31-1.237a1.356 1.356 0 0 1 1.317-1.028h1.944a1.352 1.352 0 0 1 1.317 1.032l.316 1.258a8.044 8.044 0 0 1 .973.409l1.094-.656a1.352 1.352 0 0 1 1.661.207l1.372 1.372a1.357 1.357 0 0 1 .206 1.657l-.67 1.118a7.925 7.925 0 0 1 .399.977l1.238.31a1.354 1.354 0 0 1 1.027 1.317v1.944a1.355 1.355 0 0 1-1.029 1.318l-1.26.315a8.002 8.002 0 0 1-.41.974l.656 1.094a1.359 1.359 0 0 1-.204 1.658l-1.375 1.375a1.357 1.357 0 0 1-1.654.207l-1.121-.671a8.08 8.08 0 0 1-.977.399l-.31 1.237a1.356 1.356 0 0 1-1.317 1.029Zm-1.442-2h.941l.328-1.307a.999.999 0 0 1 .725-.727 6.041 6.041 0 0 0 1.576-.644.999.999 0 0 1 1.02.006l1.172.703.666-.666-.694-1.155a.998.998 0 0 1 0-1.029 6.05 6.05 0 0 0 .662-1.57 1 1 0 0 1 .723-.716l1.324-.331v-.942l-1.306-.327a1.001 1.001 0 0 1-.727-.726 6.054 6.054 0 0 0-.643-1.577 1 1 0 0 1 .006-1.019l.702-1.17-.666-.667-1.155.693a1 1 0 0 1-1.028 0 6.046 6.046 0 0 0-1.57-.66 1 1 0 0 1-.715-.724l-.333-1.325h-.941l-.328 1.306a.999.999 0 0 1-.725.727 6.041 6.041 0 0 0-1.576.644.999.999 0 0 1-1.02-.006l-1.172-.703-.666.666.694 1.155a.998.998 0 0 1 0 1.029 6.055 6.055 0 0 0-.66 1.57 1 1 0 0 1-.724.716l-1.325.331v.942l1.306.327a1.001 1.001 0 0 1 .727.726 6.078 6.078 0 0 0 .643 1.577 1 1 0 0 1-.006 1.019l-.702 1.17.666.667 1.155-.692a1 1 0 0 1 1.028-.001 6.04 6.04 0 0 0 1.57.66 1 1 0 0 1 .715.724ZM56.209 37.453a4.519 4.519 0 0 0-4.61-.52l-8.688 4.384a3.174 3.174 0 0 0-2.583-2.105c-3.098-.22-9.504-.012-9.742-.002-1.11 0-.976-.042-8.768-2.456-2.358-.732-3.334-.283-11.04 1.376a1.201 1.201 0 0 0-1.51-1.017l-3.82 1a1.202 1.202 0 0 0-.85 1.47l4.08 15.5a1.194 1.194 0 0 0 1.47.86l3.82-1.01a1.199 1.199 0 0 0 .85-1.47l-.21-.81c.522-.05 17.739 3.67 18.25 3.78a4.461 4.461 0 0 0 3.21-.52l22.04-13.42c3.507-2.036-.898-4.261-1.9-5.04ZM10.28 53.319l-3.424-12.99a.5.5 0 0 1 .358-.612l1.311-.34a.5.5 0 0 1 .61.357C12.623 53.01 12.55 52.72 12.55 52.72a.5.5 0 0 1-.356.612l-1.303.344a.5.5 0 0 1-.61-.356ZM56.55 41.063c-3.56 2.23-21.58 13.11-21.58 13.11a2.34 2.34 0 0 1-1.66.26c-19.043-4.036-18.1-3.948-19.23-3.78l-2.79-10.58-.002-.006c7.77-1.674 8.2-1.941 9.939-1.402 7.784 2.41 7.866 2.544 9.387 2.544h.006c.064-.001 6.53-.298 9.502-.006 1.439.14 1.35 2.887-.16 3.343-2.844.86-10.82.474-13.791.283a1 1 0 0 0-.128 1.996c12.87.816 16.26-.253 17.062-3.314.092-.024 9.33-4.705 9.415-4.748a2.35 2.35 0 0 1 2.38.29c.541.416 1.119.78 1.67 1.17a.5.5 0 0 1-.02.84Z" fill="#00BBFF" opacity="1" data-original="#00BBFF" class=""></path></g></g></svg>