<svg xmlns="http://www.w3.org/2000/svg" style="max-width:100%;max-height:100%;display:block;margin:auto" viewBox="0 0 1024 1024"><path fill-rule="evenodd" d="M855 31.36c-34.446 9.377-48.75 52.351-27.619 82.973 3.86 5.594 14.677 15.667 16.823 15.667.566 0 .791 1.012.5 2.25-2.439 10.362-9.036 36.284-10.307 40.5l-1.583 5.25h-59.042l-3.886 2.184c-11.626 6.535-10.119 24.995 2.429 29.749 4.545 1.722 74.862 1.438 79.068-.32 6.39-2.67 9.267-8.953 16.077-35.113 5.673-21.789 7.364-27.957 8.88-32.392l1.161-3.391 7.499-2.166c55.064-15.898 57.87-88.052 4.101-105.451-4.529-1.466-28.432-1.283-34.101.26m8 31.234c-21.044 9.116-15.56 40.627 7.5 43.092 25.877 2.766 35.687-33.32 11.782-43.338-4.263-1.786-14.904-1.65-19.282.246M254.5 171.137c-47.474 12.19-75.115 48.393-73.192 95.863.814 20.085 4.806 31.757 17.351 50.73l5.442 8.231-3.909 5.769c-7.375 10.887-14.095 26.613-16.565 38.77l-1.22 6h-25.953c-14.275 0-50.929-.22-81.454-.489l-55.5-.489-4 2.17c-4.189 2.274-8.5 7.693-8.5 10.686 0 .964-.436 2.569-.969 3.565-.534.996-1.925 11.204-3.092 22.684L.293 440.638c-.983 9.67 5.025 18.56 13.397 19.824 2.096.316 5.835.999 8.31 1.517 2.475.519 13.05 1.443 23.5 2.054s23.158 1.754 28.239 2.539c5.082.785 11.889 1.428 15.128 1.428 8.321 0 6.98-4.349 14.644 47.5 5.152 34.861 8.234 54.891 11.999 78 1.882 11.55 4.56 28.875 5.952 38.5s3.393 22.45 4.446 28.5c1.054 6.05 1.618 11.282 1.254 11.626s-3.587 1.904-7.162 3.465c-40.02 17.481-73.381 54.515-87.3 96.909-10.159 30.943-9.943 74.049.516 103C52.318 928.373 94.52 966.475 148 979.132c18.558 4.392 64.903 3.202 82.5-2.119 77.148-23.325 125.322-98.976 113.053-177.535-.857-5.488-1.67-10.878-1.806-11.978l-.247-2 53.5-.247c29.425-.136 53.988.089 54.585.5s3.688 6.147 6.869 12.747c7.596 15.762 16.044 24.574 30.546 31.86 31.348 15.751 54.405 3.14 57.372-31.379l1.128-13.13 16.083-.408c18.759-.476 18.124-.739 21.85 9.057 1.465 3.85 3.29 8.575 4.057 10.5 1.433 3.595 16.374 45.79 16.783 47.393.125.492-2.606 2.555-6.068 4.586-20.632 12.102-31.705 32.539-31.705 58.521 0 27.284 13.23 49.101 36.5 60.191 17.32 8.255 45.545 8.659 61.446.879 41.718-20.41 51.9-74.967 20.165-108.04-11.307-11.784-29.563-21.503-40.466-21.544-7.948-.029-7.33.811-14.694-19.986a3452 3452 0 0 0-7.541-21c-2.297-6.325-5.053-14.2-6.124-17.5-1.072-3.3-3.297-9.6-4.945-14-8.193-21.877-9.352-22.463-44.474-22.485L542.234 752l-1.642-7.25c-.903-3.987-2.97-13.271-4.593-20.631-7.058-31.993-23.166-83.49-33.114-105.858-1.037-2.332-1.885-4.492-1.885-4.801 0-.548-6.227-15.465-10.21-24.46-1.096-2.475-3.808-8.1-6.026-12.5l-5.546-11c-.832-1.65-3.021-5.139-4.865-7.752-1.844-2.614-3.353-5.043-3.353-5.397 0-.809-6.627-9.166-9.416-11.874-11.178-10.854-22.666-17.156-45.375-24.893-46.15-15.723-52.73-24.24-53.888-69.761l-.475-18.676 2.724-1.785c5.403-3.54 41.211-9.466 78.065-12.92 25.074-2.35 28.406-1.883 39.865 5.589 12.23 7.973 20.291 11.663 29.607 13.551 15.341 3.108 26.213.845 44.65-9.297 5.161-2.839 12.617-11.33 15.768-17.956 3.25-6.836 5.99-8.798 15.12-10.829 31.535-7.016 50.855-24.492 50.855-46v-9l-4.264-8.719c-7.308-14.946-19.368-24.668-32.624-26.301-2.812-.347-18.387.362-34.612 1.574-35.336 2.641-125.046 3.319-151.5 1.145-17.698-1.454-53.668-6.142-54.767-7.138-.422-.382.112-3.445 1.186-6.807 7.631-23.889 5.077-51.837-6.742-73.78-11.553-21.448-34.382-40.028-56.677-46.129-7.185-1.966-37.777-2.806-44-1.208m371.173 1.971c-6.765 3.569-9.408 12.571-5.779 19.682 3.223 6.317 3.811 6.666 27.106 16.12 31.025 12.592 61.196 41.437 74.882 71.59a266 266 0 0 0 2.581 5.5c1.157 2.372 3.975 10.341 6.365 18 9.226 29.569 5.603 69.655-8.96 99.146-2.127 4.309-3.868 8.006-3.868 8.217 0 1.702-10.319 16.845-16.383 24.04-12.742 15.121-26.232 25.887-43.806 34.961-13.356 6.896-18.135 9.719-21.038 12.424-7.697 7.174-5.164 20.424 4.829 25.261 5.975 2.893 8.879 2.341 22.73-4.322 57.719-27.764 94.425-77.497 102.626-139.049 2.229-16.733.476-54.084-2.841-60.522-.47-.911-1.162-3.456-1.539-5.656-1.233-7.196-7.671-24.785-13.013-35.551-17.437-35.141-45.978-63.094-82.145-80.454-23.007-11.043-33.947-13.503-41.747-9.387M264.5 202.057c-44.914 6.92-66.783 60.894-39.472 97.42 29.485 39.433 90.057 29.582 106.107-17.258l2.988-8.719-.357-11.5c-1.158-37.344-33.619-65.435-69.266-59.943M610 236.704c-9.199 3.347-12.586 15.297-6.75 23.811l3.25 4.742 10.258 4.281C651.431 284.009 668 308.167 668 344.248c0 32.814-18.345 57.152-54.5 72.304-12.764 5.35-16.023 9.153-15.679 18.296.498 13.245 13.288 18.45 28.679 11.67 15.558-6.854 18.332-8.228 23-11.4 42.137-28.628 59.544-72.494 47.665-120.118-5.557-22.276-16.058-39.563-33.527-55.188-17.86-15.973-43.22-26.899-53.638-23.108m289.061 61.366c-15.575 2.772-32.52 16.664-38.609 31.653l-2.347 5.777-28.303.5c-30.309.535-30.591.584-35.154 6.007-4.925 5.852-4.696 14.591.538 20.553 5.205 5.928 5.051 5.899 35.137 6.44l27.822.5 2.091 5c17.17 41.055 78.19 43.387 98.471 3.763 6.661-13.016 7.448-38.156 1.554-49.69-11.622-22.746-36.138-34.965-61.2-30.503m-565.569 35.347c-27.863 23.833-61.615 28.989-97.346 14.873-7.521-2.972-7.056-3.262-13.161 8.21-4.288 8.057-5.327 10.953-9.5 26.5-6.768 25.215-4.533 80.005 5.55 136.069 1.131 6.287 2.443 13.906 2.916 16.931s1.316 7.525 1.874 10 1.533 7.2 2.167 10.5c3.045 15.841 7.903 27.891 12.444 30.866 11.195 7.335 51.977 13.551 109.064 16.624 25.759 1.387 32.542 1.986 36.5 3.221 10.691 3.339 24.012 17.288 36.541 38.265 15.041 25.182 27.468 51.567 47.112 100.024 5.301 13.076 5.79 14.164 14.082 31.336 5.18 10.727 7.51 14.38 11.908 18.675 7.725 7.542 17.504 10.8 18.727 6.239 1.458-5.443-.162-30.371-2.811-43.25-.792-3.85-1.743-9.025-2.114-11.5-1.799-12.026-10.77-48.556-14.857-60.5-1.317-3.85-3.82-11.5-5.562-17-14.505-45.8-36.492-92.942-49.491-106.117-8.021-8.13-14.78-11.487-40.035-19.887-50.579-16.822-65.805-38.812-67.225-97.087-1.073-44.04 1.982-49.37 31.823-55.516 2.971-.611 7.202-1.481 9.402-1.931 29.769-6.095 81.143-11.885 94.611-10.664 14.533 1.318 22.296 4.212 36.025 13.433 11.609 7.797 20.614 9.922 30.057 7.093 4.961-1.486 12.146-7.75 13.811-12.04 5.228-13.469 9.198-18.021 17.801-20.408 2.582-.717 8.07-2.251 12.195-3.408s9.87-2.746 12.767-3.528c15.552-4.202 20.917-10.908 14.669-18.334-4.047-4.81-6.874-5.106-33.189-3.474-82.548 5.118-169.014 2.534-220.747-6.595-3.3-.583-7.128-1.246-8.508-1.475-1.858-.308-3.8.691-7.5 3.855m572.008-3.455c-8.915 1.472-15.477 8.17-17.571 17.935-3.971 18.515 17.034 33.375 33.49 23.694 22.362-13.155 9.845-45.886-15.919-41.629M34.667 414.089c-1.793 14.933-1.068 16.919 6.165 16.903 8.503-.02 34.319 2.783 66.168 7.184 16.85 2.328 18.713 5.269 23.014 36.324 2.629 18.987 6.767 45.486 8.12 52 .571 2.75 1.409 7.7 1.861 11 6.46 47.1 18.69 124.335 19.899 125.668.333.367 4.863.206 10.067-.358 30.249-3.283 64.917 4.315 95.039 20.827 22.318 12.234 49.847 40.124 60.708 61.503l3.485 6.86h52.904c29.096 0 52.903-.171 52.903-.381 0-.632-4.693-12.775-7.003-18.119-20.825-48.182-35.542-75.372-48.273-89.184-5.122-5.556-7.141-6.048-27.724-6.757-43.18-1.487-98.262-9.5-118.931-17.301-23.013-8.685-29.575-17.946-38.092-53.758-8.003-33.647-16.087-97.431-17.648-139.25l-.644-17.25h-19.678c-10.823 0-42.631-.298-70.684-.661l-51.006-.662zm735.255 67.185c-11.03 7.432-10.579 21.785.879 28.021l4.97 2.705h28.614c24.466 0 28.615.212 28.615 1.465 0 .806.618 3.393 1.374 5.75 2.655 8.28 5.513 18.387 8.137 28.776l2.65 10.49-2.331 1.443c-1.281.793-5.517 4.625-9.413 8.516-28.185 28.148-18.029 75.05 19.583 90.433 39.338 16.089 83.535-22.103 73.915-63.873-4.333-18.812-23.278-37.556-42.541-42.088-2.681-.631-5.529-1.468-6.329-1.86-1.706-.836-2.741-4.341-11.882-40.212-4.553-17.87-6.707-23.255-10.783-26.954-5.123-4.649-7.345-4.886-45.881-4.886h-36.203zm94.963 104.106c-9.865 3.525-15.428 11.381-15.31 21.62.285 24.761 32.867 32.815 43.822 10.832 9.368-18.801-8.811-39.493-28.512-32.452M175.5 694.742c-74.033 4.233-130.963 78.275-116.093 150.987 7.15 34.963 23.192 60.691 50.579 81.115 13.043 9.728 38.22 21.156 46.608 21.156 1.699 0 5.297.67 7.997 1.489 5.612 1.703 30.348 2.104 36.293.59 1.989-.507 6.766-1.459 10.616-2.115 35.35-6.024 69.334-31.37 86.645-64.621 46.444-89.213-21.932-194.36-122.645-188.601m-4 46.956c-24.89 3.301-49.696 22.066-61.205 46.302-9.933 20.918-10.399 47.644-1.182 67.82 1.588 3.476 2.887 6.568 2.887 6.873 0 1.767 9.834 13.845 16.182 19.875 39.696 37.707 106.206 25.875 130.722-23.255 29.655-59.429-20.208-126.528-87.404-117.615m-2.5 33.258c-26.164 9.442-40.08 36.323-32.428 62.642 7.425 25.541 35.21 41.323 60.441 34.331 46.873-12.989 52.802-73.928 9.217-94.737l-7.73-3.691-12-.265c-9.917-.219-12.955.079-17.5 1.72M622.61 880.41c-38.212 14.249-29.809 68.246 10.955 70.396l8.065.425 7.752-3.581c28.518-13.176 28.878-51.383.618-65.686-5.778-2.925-21.345-3.808-27.39-1.554" fill="#00ffff"/></svg>