<svg xmlns="http://www.w3.org/2000/svg" xml:space="preserve" width="512" height="512" viewBox="0 0 64 64"><path fill="#0bf" d="M41.414.904c-.924-.97-2.444-1.271-3.87-.763l-5.686 2.021c-1.426.506-2.415 1.697-2.521 3.034l-.032.405-3.614 1.286a7.965 7.965 0 0 0-5.282 7.49v1.345h-.302c-1.305 0-2.368 1.229-2.368 2.74v21.742a2.57 2.57 0 0 0-.763 1.826v19.93H15.63a1.07 1.07 0 0 0 0 2.14h11.697a1.07 1.07 0 0 0 0-2.14h-1.346V42.03a2.57 2.57 0 0 0-.762-1.826V18.46c0-1.51-1.062-2.739-2.369-2.739h-.301v-1.346a5.82 5.82 0 0 1 3.86-5.473l3.14-1.117c.192.38.46.725.821 1.002.596.455 1.357.693 2.151.693.457 0 .924-.08 1.376-.239L40.43 6.92c1.237-.44 2.176-1.427 2.449-2.578a2.82 2.82 0 0 0-.705-2.642zM22.839 17.86c.068.024.24.238.24.6v20.996h-3.2V18.46c0-.363.171-.575.228-.599h2.732zm19.412-3.472 2.725 5.932a1.07 1.07 0 1 1-1.944.893l-2.727-5.932a1.07 1.07 0 1 1 1.946-.893m-5.738.524a1.07 1.07 0 0 1 .812 1.279l-.87 3.898a1.07 1.07 0 0 1-2.088-.466l.869-3.899c.13-.575.706-.937 1.277-.81zm7.792-2.728a1.07 1.07 0 0 1 .927-1.93l3.6 1.726a1.07 1.07 0 0 1-.925 1.93z" data-original="#00bbff"/></svg>