<svg xmlns="http://www.w3.org/2000/svg" version="1.1" xmlns:xlink="http://www.w3.org/1999/xlink" width="512" height="512" x="0" y="0" viewBox="0 0 2048 2048" style="enable-background:new 0 0 512 512" xml:space="preserve" fill-rule="evenodd" class=""><g transform="matrix(1.3199999999999998,0,0,1.3199999999999998,-327.67999999999984,-327.48261718749995)"><g fill="#baedff" fill-rule="nonzero"><path d="M1024 256c37 0 66 21 94 43 16 12 31 24 44 27 13 4 33 1 52-1 33-4 67-8 97 9 31 18 43 49 56 80 7 18 14 36 23 45s27 16 45 23c31 13 63 25 80 56 18 30 14 64 9 97-2 20-5 39-1 52 3 13 15 28 27 44 21 28 43 56 43 94 0 37-21 66-43 94-12 16-24 31-27 44-4 13-1 33 1 52 4 34 8 67-9 97-18 31-49 43-80 56-18 7-36 14-45 23s-16 27-23 45c-13 31-25 63-56 80-30 18-64 14-97 9-20-2-39-5-52-1-13 3-28 15-44 27-28 21-56 43-94 43-37 0-66-21-94-43-16-12-31-24-44-27-13-4-33-1-52 1-33 4-67 8-97-9-31-18-43-49-56-80-7-18-14-36-23-45s-27-16-45-23c-31-13-63-25-80-56-18-30-14-64-9-97 2-20 5-39 1-52-3-13-15-28-27-44-21-28-43-56-43-94 0-37 21-66 43-94 12-16 24-31 27-44 4-13 1-33-1-52-4-34-8-67 9-97 18-31 49-43 80-56 18-7 36-14 45-23s16-27 23-45c13-31 25-63 56-80 30-18 64-14 97-9 20 2 39 5 52 1 13-3 28-15 44-27 28-21 56-43 94-43zm55 94c-19-15-39-30-55-30s-36 15-55 30c-20 16-41 31-66 38-26 7-51 4-77 1-23-3-46-6-57 1-12 7-20 28-29 49-10 24-19 48-37 66s-42 28-66 37c-21 8-42 17-49 29s-4 34-1 57c3 26 6 52 0 77-7 25-22 45-38 66-15 19-30 39-30 55s15 36 30 55c16 20 31 41 38 66s4 51 0 77c-3 23-6 46 1 57 7 12 28 20 49 29 24 10 48 19 66 37s28 42 37 66c8 21 17 42 29 49s34 4 57 1c26-3 52-6 77 0 25 7 45 22 66 38 19 15 39 30 55 30s36-15 55-30c20-16 41-31 66-38 26-7 51-4 77-1 23 3 46 6 57-1 12-7 20-28 29-49 10-24 19-48 37-66s42-28 66-37c21-8 42-17 49-29s4-34 1-57c-3-26-6-52 0-77 7-25 22-45 38-66 15-19 30-39 30-55s-15-36-30-55c-16-20-31-41-38-66s-4-51 0-77c3-23 6-46-1-57-7-12-28-20-49-29-24-10-48-19-66-37s-28-42-37-66c-8-21-17-42-29-49s-34-4-57-1c-26 3-52 6-77 0-25-7-45-22-66-38z" fill="#baedff" opacity="1" data-original="#baedff" class=""></path><path d="M843 824c-12-12-12-33 0-45s33-12 45 0l99 99 172-172c12-12 33-12 45 0s12 33 0 45l-195 195c-12 12-33 12-45 0L842 824z" fill="#baedff" opacity="1" data-original="#baedff" class=""></path><path d="M1024 423c111 0 212 45 285 118s118 174 118 285-45 212-118 285-174 118-285 118-212-45-285-118-118-174-118-285 45-212 118-285 174-118 285-118zm251 152c-64-64-153-104-251-104s-187 40-251 104-104 153-104 251 40 187 104 251 153 104 251 104 187-40 251-104 104-153 104-251-40-187-104-251z" fill="#baedff" opacity="1" data-original="#baedff" class=""></path><path d="M1295 1257c-4-17 7-34 24-38s34 7 38 24l111 509c4 17-7 34-24 38-9 2-17 0-24-5l-396-231-397 232c-15 9-35 4-44-12-4-7-5-15-4-23l111-509c4-17 21-28 38-24s28 21 24 38l-95 439 350-204c10-6 22-6 33 0l351 205-95-438z" fill="#baedff" opacity="1" data-original="#baedff" class=""></path></g></g></svg>