<svg xmlns="http://www.w3.org/2000/svg" version="1.1" xmlns:xlink="http://www.w3.org/1999/xlink" width="512" height="512" x="0" y="0" viewBox="0 0 450 450.206" style="enable-background:new 0 0 512 512" xml:space="preserve" class=""><g><path d="M405.719 44.59c-55.164-55.238-143.203-59.703-203.676-10.336-60.473 49.371-73.715 136.52-30.637 201.625 31.977 48.324 88.645 74.262 146.117 66.883 57.473-7.38 105.754-46.793 124.485-101.625 18.73-54.832 4.656-115.547-36.29-156.547zm-22.61 192.32c-46.863 46.86-122.84 46.86-169.703-.004-46.86-46.863-46.86-122.84 0-169.703C260.27 20.34 336.246 20.336 383.11 67.2c22.594 22.457 35.301 53 35.301 84.856a119.646 119.646 0 0 1-35.3 84.855zM11.695 382.047c-15.504 15.64-15.449 40.871.125 56.445 15.57 15.57 40.801 15.625 56.442.121L173.809 333.07l-56.57-56.566zM190.703 281.008c-3.855-3.203-7.633-6.586-11.2-10.168-3.57-3.586-6.952-7.387-10.19-11.25-.891-1.07-1.754-2.152-2.618-3.238-.984-1.235-2.03-2.403-2.976-3.68l-23.864 23.855 33.93 33.926 23.856-23.808c-1.25-.934-2.403-1.98-3.664-2.957-1.098-.915-2.192-1.778-3.274-2.68zm0 0" fill="#baedff" opacity="1" data-original="#baedff" class=""></path></g></svg>