<svg xmlns="http://www.w3.org/2000/svg" version="1.1" xmlns:xlink="http://www.w3.org/1999/xlink" width="512" height="512" x="0" y="0" viewBox="0 0 512 512" style="enable-background:new 0 0 512 512" xml:space="preserve" class=""><g transform="matrix(1.0799999999999996,0,0,1.0799999999999996,-20.475114898681568,-20.47994506835937)"><path fill-rule="evenodd" d="m277.12 457.33-.09.09-5.77 6.77a6.46 6.46 0 0 0-1.44 4.72c.5 6.28 8.18 7.55 11.16 4a6 6 0 0 1 .62-.71l6.07-7.16.07-.1c1.77-2.27 1.39-6.58-.8-8.44a6.42 6.42 0 0 0-5.11-1.8 6.56 6.56 0 0 0-4.15 1.9 6.84 6.84 0 0 1-.61.72zm-27-46.79-8.74 10.27a6 6 0 0 1-.73.87l-.08.08-13.38 15.72a6.55 6.55 0 0 0 10 8.49l2.23-2.62a6.4 6.4 0 0 1 .71-.85l.07-.07 20.19-23.74c1.9-2.23 1.56-6.68-.68-8.58a6.43 6.43 0 0 0-5.11-1.81 6.52 6.52 0 0 0-4.45 2.24zM265.28 432a6.55 6.55 0 0 1 9.74 8.75l-6.66 7.82a6.55 6.55 0 0 0-.49.58l-5.93 7-2.73 3.21a6.51 6.51 0 0 1-4.45 2.23c-6.46.52-8.71-7-5.79-10.39.11-.12.21-.25.31-.38zm-44.87-25.76.81-.95c1.39-1.47 2.36-2.53 4.87-2.73a6.48 6.48 0 0 1 5.11 1.8c2.23 1.9 2.58 6.36.68 8.59l-.32.4L221 425.79l-.36.4a6.47 6.47 0 0 1-4.15 1.91 6.54 6.54 0 0 1-5.52-10.73l8.84-10.37a6.64 6.64 0 0 0 .6-.71zM422.52 379l-26.31-73.93c-10.86 5-18.55 3.35-27.61 1.36a88 88 0 0 0-10.63-1.88l-47.47-4.5a5.09 5.09 0 0 0-4 1.31l-11 9.88a6.06 6.06 0 0 1-.75.68l-23.1 20.69a4.93 4.93 0 0 0-1.75 3.86l-.11 35.59a5.21 5.21 0 0 0 7.4 4.82c11.1-5 13.71-16.27 14.34-27.71.95-17 14.85-22.4 28-11.17l73 62.12a36 36 0 0 0 18.67-15.57 6.1 6.1 0 0 1 3.25-2.65l8.13-2.89zm16.28 8.85-2.55-7.15-30.83-86.62v-.05l-2.54-7.15 35.9-12.78 35.94 101-35.9 12.78zm-201.28-79.28 14.56 6.92a6 6 0 0 0 3.12.57l18-1.44-9.81 8.79a17.17 17.17 0 0 0-5.86 13.06l-.12 35.59a17.57 17.57 0 0 0 24.78 16.09c16-7.17 20.76-22.19 21.66-38.3.14-2.58.62-4.25 1.34-5.1.94-1.1 4.41 1 6.36 2.64l75.19 64a6.28 6.28 0 0 0 .93.79l6.17 5.26a7.69 7.69 0 0 1-4.4 13.56c-2.84.23-4.22-.73-6.1-2.18l-44.62-38a6.16 6.16 0 1 0-8 9.39l39.13 33.31a7.69 7.69 0 0 1 2.64 5.24c.57 7.14-7.68 10.7-12.63 6.49l-7.09-6-.42-.35-28.66-24.4a6.16 6.16 0 1 0-8 9.39l28.24 24 .08.09a7.16 7.16 0 0 0 .73.63 7.8 7.8 0 0 1 .22 10.89c-2.27 2.69-7.53 3.1-10.19.81l-17.54-14.92a6.16 6.16 0 1 0-8 9.39l9.33 8a7.81 7.81 0 0 1 .6 10.72 7.83 7.83 0 0 1-10.82.82l-8.14-6.93a18.29 18.29 0 0 0 1-7.64 18.89 18.89 0 0 0-6-12.37l-.18-.19a19.65 19.65 0 0 0-7.29-4.06 18.86 18.86 0 0 0-5.1-20.62 7.3 7.3 0 0 0-1-.8 18.75 18.75 0 0 0-7.92-3.65 18.45 18.45 0 0 0 .2-4.71 18.81 18.81 0 0 0-6-12.37l-.18-.19a18.86 18.86 0 0 0-24.49-.63 18.94 18.94 0 0 0-4-5.1 5.28 5.28 0 0 0-1-.8 18.85 18.85 0 0 0-22.14-.84v-.05c-6.3-10.17-1.11-7.72-12.61-13.07l34.05-71.68zm-3-30.48 2.37-130H202l2.11 115.48 30.49 14.48zM276.18 302l-20.32 1.64-9.34-4.44.2-10.86a7.12 7.12 0 0 0 0-.8l2.55-139.37h24zm41.91-13.58-6.46-.61a17 17 0 0 0-13.39 4.41l-9.73 8.71-2.83-152.76h35l-2.56 140.25zM162.72 303.7h7.55l19.1-40.21a6.08 6.08 0 0 1 2.3-2.6l-2.06-112.76h-24.05zm-41.64 0h29.29l2.84-155.57h-35l2.84 155.57zm-42.08 0h29.74l-2.85-155.57h-24zm-18.89 24.58h98.48l5.79-12.19H60.11zm92.59 12.39H38.48v12.18h108.44zm16.19-5.25a6.21 6.21 0 0 1-1.52 3.2L157.21 360a6.1 6.1 0 0 1-1.52 3.2l-3.79 8 34.43 16.36 3.29-6.94 42.67-89.84-34.43-16.35-17.33 36.48A6.14 6.14 0 0 1 179 314l-10.15 21.38zm153.29-220.67a66.61 66.61 0 0 1-5.12-25.39v-.63l-97.61-41.09L60 114.75zm12.83 21a85.37 85.37 0 0 1-6.34-8.6H74.32v8.6zM357.17 155a96.57 96.57 0 0 1-9.54-6.85H333l-2.59 141.42 28.69 2.72.59.05zm64.31-21.07a98.18 98.18 0 0 1-41.9 30 6.21 6.21 0 0 1-4.21 0q-2.88-1.05-5.73-2.3l2.43 132.9c6.56 1.43 12.26 2.46 19.95-1.22l-2.9-8.13a6.2 6.2 0 0 1 3.78-7.89l47.56-16.92a6.18 6.18 0 0 1 7.89 3.77l40.08 112.64a6.18 6.18 0 0 1-3.77 7.89l-47.56 16.92a6.18 6.18 0 0 1-7.89-3.77l-2.55-7.16-6.13 2.18a47.79 47.79 0 0 1-10.93 11.81 47 47 0 0 1-6.77 4.35 20 20 0 0 1 .91 27.68l-.19.17a20.05 20.05 0 0 1-19 6.06A20 20 0 0 1 359 458.53a20.49 20.49 0 0 1-4.63 9l-.19.17a20 20 0 0 1-13.16 6.43 19.55 19.55 0 0 1-8.18-1 20.48 20.48 0 0 1-4 8.06l-.16.19a20 20 0 0 1-28.28 2.32l-7.16-6.09-2.89 3.39-.19.18a18.84 18.84 0 0 1-26.48 1.25l-.18-.19a18.82 18.82 0 0 1-5.35-8.66 20.25 20.25 0 0 1-2.46.36 18.84 18.84 0 0 1-13.14-4 7.3 7.3 0 0 1-1-.8 18.91 18.91 0 0 1-5.56-8.92c-10.32 2.05-21.67-4.89-22.65-17a20.05 20.05 0 0 1 0-2.9 18.85 18.85 0 0 1-9.07-3.85 6.23 6.23 0 0 1-1-.8 18.84 18.84 0 0 1-2.2-25.67 6.6 6.6 0 0 1 .8-1l5.5-6.46c-.61-.86-1.21-1.76-1.79-2.69a65.21 65.21 0 0 1-3.5-6.49l-3.94-1.88-3.3 7a6.18 6.18 0 0 1-8.23 2.95L141 379.7a6.17 6.17 0 0 1-3-8.22l3-6.24H32.28a6.19 6.19 0 0 1-6.19-6.19v-24.58a6.19 6.19 0 0 1 6.19-6.19h15.43V309.9a6.21 6.21 0 0 1 6.2-6.2h12.74l2.85-155.57h-1.38a6.21 6.21 0 0 1-6.2-6.2v-14.79H29.4A6.2 6.2 0 0 1 27.52 115l189.53-79.74a6.17 6.17 0 0 1 4.79 0l95.22 40.08v-21a6.21 6.21 0 0 1 4.5-6c17.94-5.12 37-13.21 52.39-23.71a6.18 6.18 0 0 1 7-.07C397 35.41 414.73 43 433.42 48.39a6.19 6.19 0 0 1 4.49 5.94v36.2c0 16-6.43 30.9-16.44 43.36zm-44 17.6a84.84 84.84 0 0 1-23.42-14.12c-.12-.11-.24-.22-.37-.32a76.19 76.19 0 0 1-16-18.92 5 5 0 0 0-.37-.63 56.5 56.5 0 0 1-7.84-28.16V59a197.84 197.84 0 0 0 48-21.84A198.56 198.56 0 0 0 425.55 59v31.55c0 27.51-23.91 51.33-48.06 61zm10.63-73L372.12 96l-5.24-5.76a6.18 6.18 0 0 0-9.15 8.32c3.27 3.59 6.58 7.17 9.81 10.79a6.2 6.2 0 0 0 9.15 0l20.56-22.55a6.18 6.18 0 1 0-9.15-8.32z" fill="#00ffff" opacity="1" data-original="#00ffff" class=""></path></g></svg>