<svg xmlns="http://www.w3.org/2000/svg" version="1.1" xmlns:xlink="http://www.w3.org/1999/xlink" width="512" height="512" x="0" y="0" viewBox="0 0 512 512" style="enable-background:new 0 0 512 512" xml:space="preserve" class=""><g><path d="M317.554 215.448h27.4a7 7 0 0 0 7-7v-66.564a7 7 0 0 0-4.268-6.444l-27.4-11.619a7 7 0 0 0-9.733 6.444v78.184a7 7 0 0 0 7 7zm7-14v-23.832l13.4 2.228v21.604zm13.4-54.93v19.133l-13.4-2.228v-22.588zm-155.765 6.298H250.8a7 7 0 0 0 7-7V77.204a7 7 0 0 0-7-7h-68.611a7 7 0 0 0-7 7v68.611a7 7 0 0 0 7 7zm7-34.306h20.306v20.306h-20.306zm34.306 20.306V118.51h20.306v20.306zm20.306-34.306h-20.306V84.205h20.306zm-34.306-20.305v20.305h-20.306V84.205zm272.266 157.616c-12.044 0-22.211 8.16-25.283 19.239h-32.481v-3.262a7 7 0 0 0-7-7h-39.238v-54.176l47.814-47.814a7 7 0 0 0 2.051-4.95v-41.161c11.08-3.072 19.239-13.24 19.239-25.284 0-14.468-11.771-26.239-26.239-26.239s-26.239 11.771-26.239 26.239c0 12.044 8.159 22.212 19.239 25.284v38.262l-35.865 35.866V114.42a6.999 6.999 0 0 0-4.268-6.444l-74.743-31.695V41.283a6.997 6.997 0 0 0-7-7h-14.55V10.999a7 7 0 0 0-7-7H162.792a7 7 0 0 0-7 7v23.284h-14.551a7 7 0 0 0-7 7v135.54l-35.864-35.865v-38.262c11.08-3.072 19.239-13.24 19.239-25.284 0-14.468-11.771-26.239-26.239-26.239S65.138 62.944 65.138 77.412c0 12.044 8.159 22.212 19.239 25.284v41.161c0 1.856.737 3.637 2.051 4.95l47.813 47.813v54.177H95.003a7 7 0 0 0-7 7v3.262h-32.48c-3.072-11.08-13.239-19.239-25.284-19.239C15.77 241.82 4 253.591 4 268.059s11.771 26.239 26.239 26.239c12.044 0 22.212-8.16 25.284-19.239h32.48v3.263c0 7.086 4.856 12.993 11.808 14.363l18.476 3.643 13.092 31.6-10.489 15.642c-3.947 5.885-3.205 13.495 1.807 18.506l9.564 9.564-38.727 38.727a6.998 6.998 0 0 0-2.051 4.949v41.161c-11.08 3.071-19.24 13.239-19.24 25.284 0 14.469 11.771 26.239 26.24 26.239s26.238-11.771 26.238-26.239c0-12.044-8.159-22.212-19.238-25.284v-38.261l36.677-36.678 9.563 9.563c5.011 5.013 12.62 5.755 18.505 1.808l15.643-10.489 31.599 13.092 3.645 18.475c1.37 6.952 7.276 11.808 14.362 11.808h13.525v30.683c-11.08 3.071-19.239 13.239-19.239 25.284 0 14.469 11.771 26.239 26.239 26.239s26.239-11.771 26.239-26.239c0-12.044-8.159-22.212-19.239-25.284v-30.683h13.524c7.087 0 12.993-4.855 14.363-11.807l3.644-18.476 31.6-13.092 15.642 10.489c5.881 3.945 13.492 3.204 18.506-1.808l9.563-9.563 36.677 36.678v38.261c-11.079 3.072-19.238 13.239-19.238 25.284 0 14.469 11.771 26.239 26.238 26.239s26.239-11.771 26.239-26.239c0-12.044-8.159-22.212-19.239-25.284v-41.161a6.993 6.993 0 0 0-2.051-4.949l-38.727-38.727 9.564-9.564c5.011-5.011 5.755-12.621 1.808-18.506l-10.489-15.642 13.091-31.6 18.475-3.643c6.953-1.371 11.809-7.277 11.809-14.363v-3.263h32.481c3.072 11.08 13.239 19.239 25.283 19.239 14.469 0 26.239-11.771 26.239-26.239s-11.771-26.239-26.239-26.239zM408.385 77.413c0-6.749 5.49-12.239 12.239-12.239s12.239 5.49 12.239 12.239-5.49 12.239-12.239 12.239-12.239-5.49-12.239-12.239zm-329.247 0c0-6.749 5.49-12.239 12.239-12.239s12.239 5.49 12.239 12.239-5.49 12.239-12.239 12.239-12.239-5.49-12.239-12.239zM30.239 280.299c-6.749 0-12.239-5.49-12.239-12.239s5.49-12.239 12.239-12.239 12.239 5.49 12.239 12.239-5.49 12.239-12.239 12.239zm80.48 201.462c0 6.749-5.49 12.239-12.238 12.239s-12.24-5.49-12.24-12.239 5.491-12.239 12.24-12.239 12.238 5.49 12.238 12.239zm157.52 0c0 6.749-5.49 12.239-12.239 12.239s-12.239-5.49-12.239-12.239 5.49-12.239 12.239-12.239 12.239 5.49 12.239 12.239zm157.519 0c0 6.749-5.49 12.239-12.239 12.239s-12.238-5.49-12.238-12.239 5.49-12.239 12.238-12.239 12.239 5.49 12.239 12.239zm-61.999-362.708v131.745h-65.011V91.486l65.011 27.568zM234.875 250.798h-36.76v-53.166c0-4.24 3.448-7.688 7.688-7.688h21.384c4.239 0 7.688 3.449 7.688 7.688zm104.709 14c-3.572 42.996-39.682 76.899-83.584 76.899s-80.012-33.903-83.584-76.899zM169.792 18h93.406v16.284h-93.406V18zm-21.551 30.284h136.507v202.514h-35.873v-53.166c0-11.959-9.729-21.688-21.688-21.688h-21.384c-11.958 0-21.688 9.729-21.688 21.688v53.166h-35.874zm261.756 230.039c0 .344-.179.562-.517.628l-22.152 4.368a7 7 0 0 0-5.113 4.188l-15.961 38.527a7.003 7.003 0 0 0 .653 6.578l12.578 18.755c.191.286.164.566-.079.81l-29.025 29.026c-.245.245-.526.271-.811.08l-18.757-12.578a6.995 6.995 0 0 0-6.578-.653l-38.526 15.962a7 7 0 0 0-4.188 5.112l-4.368 22.154c-.067.337-.284.515-.629.515h-41.05c-.344 0-.561-.178-.628-.516l-4.369-22.153a6.997 6.997 0 0 0-4.188-5.112l-38.526-15.962a6.997 6.997 0 0 0-6.578.654l-18.757 12.578c-.287.191-.564.164-.809-.079l-29.026-29.027c-.242-.243-.27-.522-.078-.809l12.577-18.757a6.997 6.997 0 0 0 .653-6.578l-15.961-38.527a6.997 6.997 0 0 0-5.113-4.188l-22.153-4.368c-.337-.066-.516-.284-.516-.628v-13.525h56.347c3.6 50.729 46.021 90.899 97.65 90.899s94.051-40.17 97.65-90.899h56.347v13.525zm71.764 1.977c-6.748 0-12.238-5.49-12.238-12.239s5.49-12.239 12.238-12.239S494 261.312 494 268.061s-5.49 12.239-12.239 12.239z" fill="#00BBFF" opacity="1" data-original="#00BBFF" class=""></path></g></svg>