<svg xmlns="http://www.w3.org/2000/svg" version="1.1" xmlns:xlink="http://www.w3.org/1999/xlink" width="512" height="512" x="0" y="0" viewBox="0 0 512 512" style="enable-background:new 0 0 512 512" xml:space="preserve" class=""><g><path d="M133.321 504.5H86.64c-6.904 0-12.5-5.596-12.5-12.5v-93.889c0-6.904 5.596-12.5 12.5-12.5h46.681c6.904 0 12.5 5.596 12.5 12.5V492c0 6.904-5.597 12.5-12.5 12.5zM346.425 504.5h-46.681c-6.904 0-12.5-5.596-12.5-12.5V228.111c0-6.904 5.596-12.5 12.5-12.5h46.681c6.904 0 12.5 5.596 12.5 12.5V492c0 6.904-5.596 12.5-12.5 12.5zM393.797 273.027V492c0 6.904 5.596 12.5 12.5 12.5h46.681c6.904 0 12.5-5.596 12.5-12.5V153.674a5 5 0 0 1 5-5h11.626c4.126 0 6.477-4.716 3.992-8.011L433.63 71.095c-2-2.652-5.984-2.652-7.984 0l-52.467 69.568c-2.485 3.294-.134 8.011 3.992 8.011h11.626a5 5 0 0 1 5 5v84.352M180.692 430.748V492c0 6.904 5.596 12.5 12.5 12.5h46.681c6.904 0 12.5-5.596 12.5-12.5V328.111c0-6.904-5.596-12.5-12.5-12.5h-46.681c-6.904 0-12.5 5.596-12.5 12.5v67.637M115.126 168.788v32.702h84.09v66.89c0 9.03 7.321 16.351 16.351 16.351h0c9.03 0 16.351-7.321 16.351-16.351v-83.241c0-9.03-7.321-16.351-16.351-16.351H115.126z" style="stroke-width:15;stroke-linecap:round;stroke-linejoin:round;stroke-miterlimit:10;" fill="none" stroke="#00BBFF" stroke-width="15" stroke-linecap="round" stroke-linejoin="round" stroke-miterlimit="10" data-original="#00BBFF" class=""></path><path d="M115.125 201.49v50.539h-46.89c-9.03 0-16.351 7.321-16.351 16.351v0c0 9.03 7.321 16.351 16.351 16.351h63.241c9.03 0 16.351-7.321 16.351-16.351v-66.89h-32.702zM285.363 21.356c-6.139-5.587-15.7-5.047-21.57.822l-42.16 42.16a4.998 4.998 0 0 1-3.536 1.464h-75.264c-15.302 0-27.708 12.405-27.708 27.708v75.277h78.669V98.505h30.888c4.089 0 8.01-1.624 10.901-4.515l50.318-50.318c6.196-6.196 6.016-16.351-.538-22.316z" style="stroke-width:15;stroke-linecap:round;stroke-linejoin:round;stroke-miterlimit:10;" fill="none" stroke="#00BBFF" stroke-width="15" stroke-linecap="round" stroke-linejoin="round" stroke-miterlimit="10" data-original="#00BBFF" class=""></path><circle cx="156.744" cy="36.651" r="29.151" style="stroke-width:15;stroke-linecap:round;stroke-linejoin:round;stroke-miterlimit:10;" fill="none" stroke="#00BBFF" stroke-width="15" stroke-linecap="round" stroke-linejoin="round" stroke-miterlimit="10" data-original="#00BBFF" class=""></circle><path d="M142.833 65.803H90.621c-4.089 0-8.01 1.624-10.901 4.515L66.203 83.835M41.455 108.584l-12.053 12.053c-6.195 6.195-6.015 16.351.539 22.316 6.139 5.587 15.7 5.047 21.57-.822l42.16-42.16a4.998 4.998 0 0 1 3.536-1.464h17.918" style="stroke-width:15;stroke-linecap:round;stroke-linejoin:round;stroke-miterlimit:10;" fill="none" stroke="#00BBFF" stroke-width="15" stroke-linecap="round" stroke-linejoin="round" stroke-miterlimit="10" data-original="#00BBFF" class=""></path></g></svg>