<svg xmlns="http://www.w3.org/2000/svg" version="1.1" xmlns:xlink="http://www.w3.org/1999/xlink" width="512" height="512" x="0" y="0" viewBox="0 0 512 512" style="enable-background:new 0 0 512 512" xml:space="preserve" class=""><g><path d="M457.6 379.1V165.2c0-3.9-3.1-7-7-7h-45c-.1-8.3-.9-16.7-2.4-24.9-.6-3.3-3.5-5.8-6.9-5.8h-22.9c-2.7-9.7-6.5-18.9-11.4-27.6l16.2-16.2c2.4-2.4 2.7-6.2.8-8.9C368.7 60 356 47.3 341.2 37c-2.8-1.9-6.5-1.6-8.9.8L316.1 54c-8.7-5-18-8.8-27.6-11.4V19.7c0-3.4-2.4-6.3-5.8-6.9-8.9-1.6-17.8-2.4-26.7-2.4s-17.9.8-26.7 2.4c-3.3.6-5.8 3.5-5.8 6.9v22.9c-9.6 2.6-18.9 6.5-27.6 11.4l-16.2-16.2c-2.4-2.4-6.2-2.7-8.9-.8C156 47.3 143.3 60 133 74.9c-1.9 2.8-1.6 6.5.8 8.9L150 100c-5 8.7-8.8 18-11.4 27.6h-22.9c-3.4 0-6.3 2.4-6.9 5.8-1.5 8.1-2.3 16.5-2.4 24.9h-45c-3.9 0-7 3.1-7 7v213.9C23.8 382.6 0 408.6 0 440.1c0 33.9 27.5 61.4 61.4 61.4s61.4-27.6 61.4-61.4c0-31.5-23.8-57.5-54.4-61V172.2h38.5c.4 4.9 1 9.8 1.9 14.6.6 3.3 3.5 5.8 6.9 5.8h22.9c2.7 9.6 6.5 18.9 11.4 27.6l-16.2 16.2c-2.4 2.4-2.7 6.2-.8 8.9 10.3 14.8 23 27.5 37.8 37.8 2.8 1.9 6.5 1.6 8.9-.8l16.2-16.2c8.7 5 17.9 8.8 27.6 11.5v22.9c0 3.4 2.4 6.3 5.7 6.9 6.4 1.2 13 1.9 19.7 2.2v69.6c-30.6 3.5-54.4 29.5-54.4 61 0 33.9 27.6 61.4 61.4 61.4 33.9 0 61.4-27.6 61.4-61.4 0-31.5-23.8-57.5-54.4-61v-69.6c6.7-.3 13.3-1 19.7-2.2 3.3-.6 5.8-3.5 5.8-6.9v-22.9c9.6-2.7 18.9-6.5 27.6-11.5l16.1 16.2c2.4 2.4 6.2 2.7 8.9.8 14.8-10.3 27.5-23 37.8-37.8 1.9-2.8 1.6-6.6-.8-8.9l-16-16.3c4.9-8.7 8.8-17.9 11.4-27.6h22.9c3.4 0 6.3-2.4 6.9-5.8.9-4.8 1.5-9.7 1.9-14.6h38.5V379c-30.6 3.5-54.4 29.5-54.4 61 0 33.9 27.6 61.4 61.4 61.4S512 474 512 440.1c0-31.5-23.8-57.5-54.4-61zm-348.8 61c0 26.1-21.3 47.4-47.4 47.4S14 466.2 14 440.1s21.3-47.4 47.4-47.4c26.2 0 47.4 21.3 47.4 47.4zm194.6 0c0 26.1-21.3 47.4-47.4 47.4s-47.4-21.3-47.4-47.4 21.3-47.4 47.4-47.4 47.4 21.3 47.4 47.4zM368 178.5c-3.3 0-6.1 2.3-6.8 5.4-2.7 12-7.4 23.2-13.9 33.5-1.8 2.8-1.3 6.4 1 8.7l15.8 15.8c-7.5 9.9-16.3 18.6-26.1 26.1l-15.8-15.8c-2.3-2.3-5.9-2.7-8.7-1-10.4 6.5-21.6 11.2-33.5 13.9-3.2.7-5.4 3.6-5.4 6.8v22.3c-12.1 1.7-24.9 1.7-37 0v-22.3c0-3.3-2.3-6.1-5.4-6.8-11.9-2.7-23.2-7.4-33.5-13.9-2.8-1.8-6.4-1.3-8.7 1L174.2 268c-9.9-7.5-18.6-16.3-26.1-26.1l15.8-15.8c2.3-2.3 2.7-5.9 1-8.7-6.5-10.3-11.2-21.6-13.9-33.5-.7-3.2-3.6-5.5-6.8-5.5h-22.3c-.8-6.1-1.2-12.3-1.2-18.5s.4-12.4 1.2-18.5H144c3.3 0 6.1-2.3 6.8-5.5 2.7-11.8 7.4-23.1 13.9-33.5 1.7-2.8 1.3-6.4-1-8.7l-15.8-15.8c7.5-9.9 16.2-18.6 26.1-26.1l15.8 15.8c2.3 2.3 5.9 2.7 8.7 1 10.3-6.5 21.6-11.2 33.5-13.9 3.2-.7 5.5-3.6 5.5-6.8V25.7c12.3-1.7 24.6-1.7 37 0v22.4c0 3.3 2.3 6.1 5.5 6.8 11.8 2.7 23.1 7.3 33.5 13.9 2.8 1.7 6.4 1.3 8.7-1L337.9 52c9.9 7.5 18.6 16.2 26.1 26.1l-15.8 15.8c-2.3 2.3-2.7 5.9-1 8.7 6.5 10.3 11.2 21.5 13.9 33.5.7 3.2 3.6 5.4 6.8 5.4h22.3c.8 6.1 1.3 12.3 1.3 18.5 0 1.5 0 2.9-.1 4.4V165.2c-.2 4.4-.6 8.9-1.2 13.3zm82.6 309c-26.1 0-47.4-21.3-47.4-47.4s21.3-47.4 47.4-47.4S498 414 498 440.1c0 26.2-21.3 47.4-47.4 47.4zM318.9 108.2c12 14.6 18.6 33 18.6 51.8 0 45-36.6 81.6-81.5 81.6-45 0-81.6-36.6-81.6-81.6S211 78.5 256 78.5c16.7 0 32.8 5 46.5 14.6 3.2 2.2 4 6.6 1.8 9.7s-6.6 4-9.7 1.8c-11.4-7.9-24.7-12.1-38.6-12.1-37.2 0-67.5 30.3-67.5 67.5s30.3 67.5 67.5 67.5 67.5-30.3 67.5-67.5c0-15.6-5.5-30.9-15.4-42.9-2.5-3-2-7.4.9-9.9 3-2.4 7.5-2 9.9 1zm-77.4 35.3c0 5.4 4.8 9.5 11.1 9.5h6.1c14.2 0 25.8 10.6 25.8 23.6 0 11.6-9.3 21.3-21.5 23.2v7.9c0 3.9-3.1 7-7 7s-7-3.1-7-7v-7.5h-15.8c-3.9 0-7-3.1-7-7s3.1-7 7-7h25.5c6.4 0 11.8-4.4 11.8-9.5 0-5.2-5.4-9.6-11.8-9.6h-6.1c-14.1 0-25.1-10.3-25.1-23.5 0-11.6 9.3-21.3 21.5-23.2v-7.9c0-3.9 3.1-7 7-7s7 3.1 7 7v7.5h15.8c3.9 0 7 3.1 7 7s-3.1 7-7 7h-25.5c-6.4 0-11.8 4.4-11.8 9.5zM61.4 397.8c3.9 0 7 3.1 7 7v3.8h9.9c3.9 0 7 3.1 7 7s-3.1 7-7 7H59.4c-3.8 0-6.9 2.4-6.9 5.3 0 3 2.7 5.2 6.4 5.2h4.5c11.6 0 20.9 8.6 20.9 19.3 0 9-6.8 16.6-15.9 18.7v4.4c0 3.9-3.1 7-7 7s-7-3.1-7-7v-3.8h-9.9c-3.9 0-7-3.1-7-7s3.1-7 7-7h18.9c3.7 0 6.9-2.5 6.9-5.3s-3.2-5.3-6.9-5.3h-4.5c-11.4 0-20.4-8.5-20.4-19.2 0-9 6.8-16.6 15.9-18.7v-4.4c0-3.8 3.1-7 7-7zm380.2 30.1c0 3 2.7 5.2 6.4 5.2h4.5c11.6 0 21 8.6 21 19.3 0 9-6.8 16.6-15.9 18.7v4.4c0 3.9-3.1 7-7 7s-7-3.1-7-7v-3.8h-9.9c-3.9 0-7-3.1-7-7s3.1-7 7-7h18.9c3.7 0 7-2.5 7-5.3s-3.3-5.3-7-5.3H448c-11.4 0-20.4-8.5-20.4-19.2 0-9 6.8-16.6 15.9-18.7v-4.4c0-3.9 3.1-7 7-7s7 3.1 7 7v3.8h9.9c3.9 0 7 3.1 7 7s-3.1 7-7 7h-18.9c-3.6 0-6.9 2.5-6.9 5.3zM256 397.8c3.9 0 7 3.1 7 7v3.8h9.9c3.9 0 7 3.1 7 7s-3.1 7-7 7H254c-3.7 0-6.9 2.5-6.9 5.3 0 3 2.7 5.2 6.4 5.2h4.5c11.6 0 20.9 8.6 20.9 19.3 0 9-6.8 16.6-15.9 18.7v4.4c0 3.9-3.1 7-7 7s-7-3.1-7-7v-3.8h-9.9c-3.9 0-7-3.1-7-7s3.1-7 7-7H258c3.8 0 6.9-2.4 6.9-5.3s-3.2-5.3-6.9-5.3h-4.5c-11.4 0-20.4-8.5-20.4-19.2 0-9 6.8-16.6 15.9-18.7v-4.4c0-3.8 3.1-7 7-7z" fill="#00BBFF" opacity="1" data-original="#00BBFF" class=""></path></g></svg>