<svg xmlns="http://www.w3.org/2000/svg" version="1.1" xmlns:xlink="http://www.w3.org/1999/xlink" width="512" height="512" x="0" y="0" viewBox="0 0 512 512" style="enable-background:new 0 0 512 512" xml:space="preserve" class=""><g><path d="M166 369.5v-75M166 474.5v-75M346 474.5H166c-16.569 0-30 13.431-30 30h240c0-16.569-13.431-30-30-30zM346 294.5v180M406 249.5v45H106v-45M376 249.5h75c8.284 0 15-6.716 15-15 0-8.284-6.716-15-15-15H61c-8.284 0-15 6.716-15 15 0 8.284 6.716 15 15 15h285" style="stroke-width:15;stroke-linecap:round;stroke-linejoin:round;stroke-miterlimit:10;" fill="none" stroke="#00ffff" stroke-width="15" stroke-linecap="round" stroke-linejoin="round" stroke-miterlimit="10" data-original="#00ffff" class=""></path><circle cx="256" cy="384.5" r="60" style="stroke-width:15;stroke-linecap:round;stroke-linejoin:round;stroke-miterlimit:10;" fill="none" stroke="#00ffff" stroke-width="15" stroke-linecap="round" stroke-linejoin="round" stroke-miterlimit="10" data-original="#00ffff" class=""></circle><circle cx="256" cy="384.5" r="30" style="stroke-width:15;stroke-linecap:round;stroke-linejoin:round;stroke-miterlimit:10;" fill="none" stroke="#00ffff" stroke-width="15" stroke-linecap="round" stroke-linejoin="round" stroke-miterlimit="10" data-original="#00ffff" class=""></circle><path d="M376 159.5h-90c-16.5 0-30 13.5-30 30 0-16.5-13.5-30-30-30h-90M376 129.5h-90c-16.5 0-30 13.5-30 30M136 129.5h90c16.5 0 30 13.5 30 30M256 189.5v-152" style="stroke-width:15;stroke-linecap:round;stroke-linejoin:round;stroke-miterlimit:10;" fill="none" stroke="#00ffff" stroke-width="15" stroke-linecap="round" stroke-linejoin="round" stroke-miterlimit="10" data-original="#00ffff" class=""></path><path d="M286 7.5c-16.5 0-30 13.5-30 30 0-16.5-13.5-30-30-30h-90v182h240V7.5h-90z" style="stroke-width:15;stroke-linecap:round;stroke-linejoin:round;stroke-miterlimit:10;" fill="none" stroke="#00ffff" stroke-width="15" stroke-linecap="round" stroke-linejoin="round" stroke-miterlimit="10" data-original="#00ffff" class=""></path></g></svg>