<svg xmlns="http://www.w3.org/2000/svg" version="1.1" xmlns:xlink="http://www.w3.org/1999/xlink" width="512" height="512" x="0" y="0" viewBox="0 0 512 512" style="enable-background:new 0 0 512 512" xml:space="preserve" class=""><g><path d="M384.368 301.523c0-70.782-57.586-128.368-128.368-128.368s-128.367 57.586-128.367 128.368S185.217 429.891 256 429.891s128.368-57.585 128.368-128.368zm-60.314-7c-.605-20.772-3.89-40.035-9.252-56.697 10.378-2.519 20.124-5.705 28.968-9.539 15.193 18.177 24.853 41.125 26.376 66.236zM263 192.286c12.737 3.518 24.235 16.457 32.69 35.137-10.447 1.698-21.417 2.726-32.69 3.025zm-14 0v38.163c-11.272-.3-22.243-1.327-32.69-3.025 8.454-18.681 19.953-31.62 32.69-35.138zm0 52.171v50.067h-47.041c.64-19.646 3.943-38.081 9.167-53.782 12.071 2.121 24.802 3.383 37.874 3.715zm0 64.066v51.618c-12.88.328-25.444 1.562-37.375 3.633-5.511-16.015-9.006-34.989-9.666-55.251zm0 65.625v36.612c-12.406-3.426-23.638-15.787-32.026-33.689 10.254-1.636 21.001-2.628 32.026-2.923zm14 36.612v-36.612c11.025.294 21.772 1.287 32.026 2.923-8.388 17.903-19.621 30.263-32.026 33.689zm0-50.619v-51.618h47.041c-.66 20.262-4.155 39.236-9.666 55.251-11.932-2.071-24.495-3.305-37.375-3.633zm0-65.618v-50.067c13.072-.332 25.803-1.594 37.874-3.716 5.224 15.701 8.527 34.137 9.167 53.782H263zm46.894-69.901c-5.757-13.482-13.03-24.657-21.394-32.755 16.935 5.028 32.239 13.877 44.911 25.549-7.287 2.851-15.18 5.255-23.517 7.206zm-107.789 0c-8.338-1.951-16.229-4.355-23.517-7.206 12.671-11.671 27.976-20.521 44.91-25.549-8.362 8.098-15.636 19.273-21.393 32.755zm-4.908 13.204c-5.362 16.663-8.647 35.925-9.252 56.697h-46.092c1.524-25.111 11.183-48.059 26.375-66.236 8.846 3.834 18.591 7.02 28.969 9.539zm-9.252 70.697c.622 21.372 4.08 41.15 9.719 58.138-10.179 2.445-19.758 5.528-28.475 9.233-15.746-18.352-25.78-41.735-27.336-67.371zm14.777 71.314c5.657 12.849 12.708 23.529 20.776 31.342-16.402-4.87-31.274-13.325-43.707-24.457 7.131-2.717 14.822-5.015 22.931-6.885zm106.555 0c8.109 1.87 15.8 4.168 22.931 6.885-12.432 11.132-27.305 19.587-43.707 24.457 8.069-7.813 15.12-18.493 20.776-31.342zm5.058-13.176c5.64-16.988 9.097-36.766 9.719-58.138h46.093c-1.556 25.636-11.591 49.019-27.336 67.371-8.718-3.705-18.297-6.787-28.476-9.233zM182.009 94.11c4.824 1.8 8.356 5.688 9.691 10.669s.221 10.116-3.058 14.088a7 7 0 0 0 6.559 11.359c5.082-.854 10.082.748 13.729 4.395s5.248 8.65 4.395 13.729a7.002 7.002 0 0 0 3.403 7.223 7.006 7.006 0 0 0 7.956-.664c3.94-3.254 9.071-4.353 14.073-3.01 5.003 1.34 8.897 4.855 10.684 9.644a7.002 7.002 0 0 0 13.118 0c1.8-4.825 5.689-8.357 10.671-9.691 4.983-1.336 10.115-.22 14.086 3.058a7 7 0 0 0 11.359-6.559c-.854-5.078.748-10.082 4.396-13.729 3.646-3.646 8.65-5.248 13.728-4.395a7 7 0 0 0 6.559-11.359c-3.253-3.941-4.351-9.071-3.01-14.074s4.855-8.896 9.644-10.683a7.002 7.002 0 0 0 0-13.118c-4.824-1.8-8.356-5.689-9.691-10.671s-.22-10.115 3.058-14.086a7 7 0 0 0-6.559-11.359c-5.079.852-10.082-.75-13.728-4.396s-5.249-8.65-4.396-13.728a7.002 7.002 0 0 0-3.403-7.223 6.997 6.997 0 0 0-7.956.664c-3.941 3.253-9.07 4.347-14.074 3.01-5.003-1.341-8.896-4.855-10.683-9.644a7.002 7.002 0 0 0-13.118 0c-1.8 4.824-5.688 8.356-10.67 9.691-4.981 1.334-10.115.22-14.087-3.058a7 7 0 0 0-11.359 6.559c.854 5.077-.748 10.081-4.395 13.728-3.647 3.646-8.656 5.246-13.729 4.396a7 7 0 0 0-6.559 11.359c3.253 3.941 4.351 9.071 3.01 14.074s-4.855 8.896-9.644 10.683a7.002 7.002 0 0 0 0 13.118zm23.166-20.176a29.874 29.874 0 0 0-.067-15.709c5.104-1.284 9.824-3.946 13.723-7.845 3.88-3.881 6.535-8.576 7.825-13.653 5.04 1.421 10.436 1.47 15.739.049 5.324-1.427 9.988-4.183 13.651-7.96a29.882 29.882 0 0 0 29.281 7.845c1.283 5.104 3.944 9.823 7.843 13.721 3.882 3.882 8.576 6.536 13.654 7.827-1.421 5.042-1.47 10.436-.05 15.737 1.427 5.325 4.185 9.99 7.962 13.653a29.875 29.875 0 0 0-7.846 29.28c-5.103 1.284-9.823 3.945-13.722 7.843-3.881 3.882-6.536 8.577-7.826 13.655-5.039-1.422-10.437-1.472-15.737-.05-5.325 1.427-9.99 4.184-13.653 7.961a29.887 29.887 0 0 0-21.301-8.931c-2.704 0-5.391.367-7.979 1.085-1.284-5.103-3.945-9.822-7.843-13.721-3.882-3.882-8.577-6.536-13.655-7.826 1.421-5.043 1.47-10.438.049-15.739-1.427-5.324-4.184-9.989-7.96-13.651a29.882 29.882 0 0 0 7.912-13.571zM256 131.038c23.979 0 43.486-19.508 43.486-43.486S279.978 44.065 256 44.065s-43.486 19.508-43.486 43.486 19.507 43.487 43.486 43.487zm0-72.973c16.259 0 29.486 13.228 29.486 29.486S272.258 117.038 256 117.038s-29.486-13.228-29.486-29.486S239.741 58.065 256 58.065zm202.631 266.952c11.543 0 22.784-4.511 31.135-12.729 10.204-10.042 14.942-24.488 12.672-38.643a6.999 6.999 0 0 0-5.691-5.784c-14.12-2.499-28.637 2.007-38.843 12.052-.161.158-.308.327-.466.487a200.606 200.606 0 0 0-9.719-44.308c10.781-5.656 18.889-15.566 22.173-27.442 3.817-13.801.697-28.681-8.347-39.803a6.997 6.997 0 0 0-7.821-2.163c-12.383 4.5-22.089 14.299-26.544 26.568a202.21 202.21 0 0 0-5.882-8.762c1.307-13.165-3.34-26.345-12.753-35.758-10.124-10.126-24.611-14.746-38.744-12.363a7.001 7.001 0 0 0-5.738 5.738c-2.384 14.135 2.238 28.618 12.363 38.743 8.369 8.37 19.717 12.979 31.385 12.979.958 0 1.919-.041 2.88-.103a189.815 189.815 0 0 1 5.889 8.985c-.293-.088-.581-.189-.876-.271-13.804-3.815-28.68-.696-39.803 8.347a7.003 7.003 0 0 0-2.163 7.822c4.896 13.473 16.057 23.795 29.857 27.612a44.21 44.21 0 0 0 11.776 1.597 44.535 44.535 0 0 0 19.931-4.716 186.64 186.64 0 0 1 7.656 33.976c-9.809-8.287-22.85-11.991-35.661-9.935a6.999 6.999 0 0 0-5.784 5.691c-2.498 14.116 2.008 28.637 12.052 38.843 7.882 8.009 18.476 12.648 29.513 13.177-1.734 14.118-5.013 27.846-9.831 41.076-4.277-10.521-12.497-19.147-23.055-23.851a7 7 0 0 0-7.955 1.607c-9.805 10.458-13.967 25.081-11.132 39.113 2.312 11.448 9.065 21.447 18.582 27.912a191.49 191.49 0 0 1-24.689 28.245c.902-11.271-2.531-22.625-9.792-31.557a6.998 6.998 0 0 0-7.823-2.163c-13.472 4.896-23.793 16.059-27.61 29.858-3.117 11.27-1.603 23.258 3.981 33.333-21.077 11.131-43.791 18.044-67.668 20.571a7 7 0 0 0 1.472 13.922c25.806-2.731 50.347-10.226 73.106-22.307 5.761 10.083 15.323 17.637 26.681 20.779a44.196 44.196 0 0 0 11.775 1.596 44.46 44.46 0 0 0 28.026-9.942 7 7 0 0 0 2.164-7.822c-4.896-13.474-16.059-23.795-29.858-27.612a43.98 43.98 0 0 0-3.478-.793c13.353-11.213 25.32-24.175 35.39-38.362a44.496 44.496 0 0 0 24.49 7.369c2.908 0 5.836-.287 8.735-.872 14.035-2.835 25.897-12.344 31.73-25.438a7 7 0 0 0-1.605-7.955c-10.459-9.806-25.084-13.968-39.115-11.133a43.881 43.881 0 0 0-3.375.839c7.702-17.916 12.698-36.757 14.942-56.286.487.02.977.036 1.465.036zM353.265 438.83c2.133-7.714 7.238-14.224 14.064-18.176 3.826 6.898 4.862 15.106 2.728 22.82-2.133 7.714-7.238 14.223-14.064 18.175-3.826-6.897-4.862-15.105-2.728-22.819zm50.629 46.344c-6.897 3.825-15.104 4.862-22.819 2.728-7.714-2.133-14.224-7.238-18.176-14.065 6.898-3.826 15.106-4.861 22.819-2.728 7.714 2.132 14.224 7.238 18.176 14.065zm63.83-195.282c5.704-5.614 13.381-8.699 21.269-8.708-.136 7.887-3.343 15.513-9.047 21.126-5.704 5.614-13.381 8.698-21.269 8.708.136-7.888 3.343-15.513 9.047-21.126zm-28.117-89.619c2.132-7.713 7.238-14.223 14.064-18.175a30.403 30.403 0 0 1 2.728 22.82c-2.133 7.714-7.238 14.224-14.064 18.176a30.397 30.397 0 0 1-2.728-22.821zm-62.159-50.519c7.887.073 15.54 3.22 21.198 8.878 5.659 5.66 8.805 13.312 8.878 21.199-7.888-.073-15.54-3.22-21.198-8.878-5.66-5.66-8.806-13.311-8.878-21.199zm29.88 82.975c-7.715-2.133-14.224-7.238-18.176-14.065 6.899-3.824 15.107-4.862 22.82-2.728 7.714 2.133 14.224 7.238 18.176 14.065-6.898 3.826-15.107 4.861-22.82 2.728zm7.507 47.861c7.887.136 15.513 3.343 21.126 9.047 5.614 5.704 8.699 13.381 8.708 21.269-7.887-.136-15.513-3.343-21.126-9.047a30.402 30.402 0 0 1-8.708-21.269zm-5.677 76.872c6.531 4.424 11.165 11.277 12.749 19.123 1.584 7.845-.027 15.959-4.33 22.57-6.531-4.424-11.165-11.277-12.749-19.123-1.584-7.844.027-15.958 4.33-22.57zm39.211 36.692c7.842-1.584 15.958.027 22.57 4.331-4.424 6.53-11.277 11.164-19.122 12.749-7.845 1.584-15.959-.027-22.571-4.331a30.408 30.408 0 0 1 19.123-12.749zm-212.452 94.848c-23.876-2.527-46.59-9.439-67.667-20.572 5.583-10.076 7.097-22.063 3.98-33.333-3.817-13.8-14.139-24.962-27.612-29.858a7 7 0 0 0-7.822 2.164c-7.26 8.93-10.692 20.282-9.792 31.553a191.394 191.394 0 0 1-24.689-28.241c9.516-6.465 16.271-16.464 18.582-27.911 2.834-14.035-1.328-28.657-11.132-39.114a7.006 7.006 0 0 0-7.955-1.607c-10.563 4.707-18.789 13.34-23.063 23.869-4.819-13.233-8.101-26.967-9.835-41.095 11.041-.526 21.642-5.167 29.526-13.178 10.043-10.205 14.549-24.725 12.052-38.842a6.998 6.998 0 0 0-5.784-5.692c-12.809-2.057-25.852 1.648-35.662 9.936a186.651 186.651 0 0 1 7.656-33.977 44.528 44.528 0 0 0 19.93 4.716c3.938 0 7.9-.524 11.776-1.596 13.8-3.817 24.962-14.139 29.858-27.612a7 7 0 0 0-2.164-7.822c-11.122-9.042-26-12.162-39.803-8.347-.296.082-.583.184-.877.271 1.88-3.05 3.84-6.05 5.888-8.985.961.063 1.922.104 2.881.104 11.668 0 23.017-4.61 31.385-12.979 10.125-10.124 14.747-24.607 12.363-38.743a7.001 7.001 0 0 0-5.738-5.738c-14.132-2.381-28.617 2.238-38.744 12.363-9.412 9.413-14.06 22.592-12.753 35.756a201.331 201.331 0 0 0-5.882 8.763c-4.455-12.269-14.16-22.068-26.542-26.567a7 7 0 0 0-7.821 2.163c-9.043 11.122-12.164 26.001-8.349 39.802 3.285 11.876 11.394 21.786 22.174 27.443a200.606 200.606 0 0 0-9.719 44.308c-.158-.16-.306-.329-.466-.487-10.205-10.044-24.725-14.55-38.842-12.052a6.998 6.998 0 0 0-5.691 5.784c-2.271 14.154 2.468 28.601 12.672 38.643 8.351 8.218 19.59 12.729 31.134 12.729.484 0 .97-.016 1.456-.032 2.244 19.531 7.236 38.371 14.933 56.28a43.795 43.795 0 0 0-3.354-.833c-14.036-2.837-28.659 1.329-39.114 11.133a6.998 6.998 0 0 0-1.605 7.955c5.833 13.094 17.695 22.603 31.73 25.438 2.9.586 5.826.872 8.734.872 8.689 0 17.22-2.57 24.49-7.369 10.07 14.186 22.039 27.147 35.392 38.361a43.933 43.933 0 0 0-3.48.794c-13.801 3.817-24.962 14.14-29.857 27.612a7.002 7.002 0 0 0 2.163 7.822 44.46 44.46 0 0 0 28.026 9.942c3.938 0 7.9-.524 11.776-1.596 11.358-3.142 20.92-10.696 26.682-20.78 22.759 12.083 47.3 19.578 73.105 22.309a7 7 0 0 0 7.697-6.225 7.006 7.006 0 0 0-6.227-7.702zM90.092 376.585c1.585-7.846 6.219-14.699 12.75-19.123 4.303 6.611 5.914 14.726 4.33 22.571s-6.218 14.698-12.749 19.122c-4.302-6.611-5.915-14.725-4.331-22.57zm7.073-95.995c-.01 7.889-3.094 15.564-8.708 21.269-5.613 5.705-13.238 8.912-21.127 9.047.01-7.888 3.095-15.564 8.708-21.269s13.239-8.911 21.127-9.047zm2.863-64.654c7.712-2.133 15.921-1.098 22.819 2.728-3.952 6.827-10.462 11.933-18.176 14.065-7.713 2.135-15.921 1.098-22.819-2.728 3.952-6.827 10.461-11.933 18.176-14.065zm13.325-57.304c5.66-5.659 13.312-8.805 21.198-8.878-.072 7.888-3.218 15.539-8.878 21.199-5.658 5.659-13.31 8.805-21.197 8.878a30.403 30.403 0 0 1 8.877-21.199zM55.6 204.919a30.399 30.399 0 0 1 2.729-22.82c6.826 3.952 11.932 10.462 14.065 18.176s1.098 15.922-2.729 22.82c-6.827-3.952-11.932-10.462-14.065-18.176zM32.054 302.31c-5.704-5.613-8.911-13.239-9.047-21.126a30.406 30.406 0 0 1 21.269 8.708c5.704 5.613 8.911 13.239 9.047 21.126-7.889-.01-15.565-3.094-21.269-8.708zm28.129 108.924c-7.845-1.584-14.698-6.219-19.122-12.749a30.402 30.402 0 0 1 22.57-4.331c7.845 1.584 14.698 6.219 19.123 12.749a30.388 30.388 0 0 1-22.571 4.331zm84.486 9.42c6.827 3.952 11.933 10.462 14.065 18.176 2.134 7.713 1.099 15.921-2.728 22.819-6.827-3.952-11.933-10.461-14.065-18.176-2.133-7.712-1.098-15.92 2.728-22.819zm-13.745 67.247c-7.713 2.135-15.921 1.098-22.819-2.728 3.952-6.827 10.461-11.933 18.176-14.065 7.711-2.133 15.922-1.099 22.82 2.728-3.952 6.827-10.462 11.933-18.177 14.065z" fill="#00ffff" opacity="1" data-original="#00ffff" class=""></path></g></svg>