<svg xmlns="http://www.w3.org/2000/svg" version="1.1" xmlns:xlink="http://www.w3.org/1999/xlink" width="512" height="512" x="0" y="0" viewBox="0 0 512 512" style="enable-background:new 0 0 512 512" xml:space="preserve" class=""><g><path d="M218.132 307.539c-26.224-26.223-68.895-26.223-95.119 0-26.224 26.224-26.224 68.894-.003 95.117 12.704 12.719 29.595 19.723 47.562 19.723s34.859-7.005 47.557-19.717c12.719-12.705 19.724-29.596 19.724-47.564-.001-17.966-7.004-34.856-19.721-47.559zm-9.885 85.24c-10.064 10.075-23.444 15.625-37.675 15.625s-27.611-5.549-37.677-15.628c-20.775-20.776-20.775-54.58 0-75.355 10.388-10.387 24.033-15.582 37.678-15.582s27.29 5.195 37.678 15.582l.003.003c10.075 10.063 15.624 23.442 15.624 37.673-.001 14.232-5.55 27.612-15.631 37.682zm26.352-101.702-.002-.003c-35.288-35.287-92.729-35.288-128.051.003C76.319 321.33 72.011 367.809 93.573 402.7l-13.447 13.464a13.846 13.846 0 0 0-7.055-1.927c-3.728 0-7.231 1.45-9.864 4.084l-39.881 39.882c-5.888 5.87-9.135 13.704-9.141 22.057-.006 8.367 3.238 16.222 9.134 22.119 6.08 6.08 14.072 9.12 22.07 9.12 7.997 0 16.001-3.041 22.1-9.122l39.886-39.915c4.559-4.558 5.27-11.542 2.142-16.908l13.458-13.458c14.535 8.979 31.065 13.493 47.606 13.493 23.186 0 46.37-8.823 64.013-26.466 35.29-35.288 35.29-92.729.005-128.046zM57.615 492.49c-6.743 6.722-17.694 6.725-24.413.007-3.253-3.253-5.043-7.595-5.04-12.226.003-4.617 1.791-8.939 5.04-12.179l39.855-39.886 24.437 24.375zm42.356-57.152-9.633-9.622 11.595-11.609c1.473 1.712 2.995 3.396 4.618 5.018 1.623 1.621 3.307 3.143 5.019 4.615zm16.459-26.098c-29.841-29.841-29.84-78.418-.002-108.282 14.936-14.922 34.545-22.382 54.155-22.382 19.606 0 39.213 7.462 54.129 22.377 29.842 29.869 29.843 78.446.002 108.287-29.841 29.843-78.417 29.841-108.284 0zM231.796 47.433l24.365 18.689-8.735 29.484a6.987 6.987 0 0 0 10.66 7.742l25.317-17.416 25.291 17.414a6.989 6.989 0 0 0 10.663-7.74l-8.734-29.481 24.39-18.69a6.986 6.986 0 0 0-4.072-12.531l-30.722-.784-10.225-28.958A6.99 6.99 0 0 0 283.408.5h-.001a6.988 6.988 0 0 0-6.588 4.657l-10.25 28.963-30.698.784a6.985 6.985 0 0 0-6.466 4.824 6.983 6.983 0 0 0 2.391 7.705zm39.935.535a6.987 6.987 0 0 0 6.409-4.654l5.258-14.859 5.244 14.854a6.985 6.985 0 0 0 6.411 4.659l15.763.402-12.509 9.585a6.989 6.989 0 0 0-2.45 7.532l4.486 15.143-12.976-8.935a6.984 6.984 0 0 0-7.923-.002l-13.011 8.95 4.491-15.155a6.988 6.988 0 0 0-2.447-7.53l-12.498-9.587zM421.516 179.49c0-32.118-26.13-58.248-58.249-58.248-20.098 0-38.662 10.436-49.23 27.133a62.938 62.938 0 0 0-30.633-7.924 62.973 62.973 0 0 0-30.643 7.923c-10.59-16.696-29.161-27.131-49.246-27.131-32.103 0-58.221 26.13-58.221 58.248 0 19.212 9.359 36.273 23.751 46.884-13.372 3.764-25.513 11.443-34.802 22.296a6.986 6.986 0 0 0 5.305 11.531c1.971 0 3.93-.829 5.312-2.444 10.905-12.739 26.675-20.046 43.265-20.046h30.807c3.967 0 7.926.428 11.807 1.262a63.868 63.868 0 0 0 16.346 16.677 76.528 76.528 0 0 0-17.544 6.97c-3.382 1.859-4.617 6.107-2.758 9.489s6.107 4.618 9.489 2.758a62.828 62.828 0 0 1 30.186-7.735h33.892c34.879 0 63.256 28.388 63.256 63.283v18.569c-23.26 13.57-50.9 20.725-80.202 20.725-2.394 0-4.923-.059-8.203-.193a6.98 6.98 0 0 0-7.266 6.698 6.989 6.989 0 0 0 6.698 7.267c3.476.141 6.181.205 8.771.205 33.309 0 64.734-8.581 90.876-24.816a6.99 6.99 0 0 0 3.301-5.936v-9.873c25.105-2.106 48.725-9.659 68.667-22.042a6.987 6.987 0 0 0 3.302-5.936V294.63c0-32.478-21.953-59.906-51.788-68.263 14.395-10.612 23.754-27.67 23.754-46.877zm-199.464 40.169a44.309 44.309 0 0 1-18.536 4.076c-24.397 0-44.246-19.848-44.246-44.245 0-24.412 19.848-44.272 44.246-44.272 15.517 0 29.847 8.194 37.829 21.252-13.06 11.611-21.308 28.518-21.308 47.321 0 5.478.701 10.795 2.015 15.868zm61.354 33.497c-27.236 0-49.394-22.145-49.394-49.366 0-27.22 22.158-49.365 49.394-49.365 27.22 0 49.366 22.145 49.366 49.365-.001 27.221-22.146 49.366-49.366 49.366zm152.171 41.473v16.497c-17.056 9.872-36.922 15.988-58.029 17.912-.622-35.296-25.002-64.896-57.804-73.413a63.866 63.866 0 0 0 16.305-16.653 56.233 56.233 0 0 1 11.802-1.261h30.836c31.368 0 56.89 25.533 56.89 56.918zm-72.309-70.894a44.292 44.292 0 0 1-18.535-4.076 63.253 63.253 0 0 0 2.014-15.868c0-18.8-8.242-35.704-21.291-47.314 7.958-13.062 22.283-21.259 37.813-21.259 24.413 0 44.274 19.861 44.274 44.272-.001 24.397-19.863 44.245-44.275 44.245zM72.04 285.31a216.5 216.5 0 0 1-3.07-36.34c0-44.1 13.288-86.464 38.429-122.513 24.568-35.227 58.634-62.018 98.514-77.476a6.988 6.988 0 0 1 5.051 13.031C134.391 91.689 82.945 166.823 82.945 248.97c0 11.399.966 22.834 2.871 33.987a6.987 6.987 0 0 1-6.896 8.165 6.99 6.99 0 0 1-6.88-5.812zm425.774-36.34c0 57.276-22.303 111.121-62.802 151.616-40.495 40.492-94.337 62.792-151.606 62.792-16.614 0-33.153-1.909-49.155-5.674a6.988 6.988 0 0 1-5.202-8.402c.884-3.756 4.645-6.09 8.402-5.202 14.955 3.518 30.417 5.302 45.955 5.302 110.519 0 200.433-89.914 200.433-200.432 0-82.147-51.447-157.281-128.019-186.958a6.988 6.988 0 0 1 5.051-13.031c39.881 15.457 73.947 42.248 98.514 77.476 25.14 36.048 38.429 78.413 38.429 122.513z" fill="#00ffff" opacity="1" data-original="#00ffff" class=""></path></g></svg>