<svg xmlns="http://www.w3.org/2000/svg" version="1.1" xmlns:xlink="http://www.w3.org/1999/xlink" width="512" height="512" x="0" y="0" viewBox="0 0 512 512" style="enable-background:new 0 0 512 512" xml:space="preserve"><g><path d="m398.718 321.139-83.59 48.687c-3.713 2.162-7.482 3.754-11.392 4.792 1.336-2.381 2.403-5.017 3.173-7.888 4.354-16.248-5.294-33.208-21.963-38.613a8.032 8.032 0 0 0-1.048-.263c-23.979-4.325-47.665-12.888-66.697-19.77-6.622-2.394-12.877-4.655-18.201-6.382-21.623-7.011-41.108 1.639-57.321 11.025l-61.68 35.712-5.574-9.848c-2.665-4.708-7.017-8.101-12.253-9.553-5.236-1.451-10.715-.781-15.422 1.882l-23.454 13.273c-9.744 5.514-13.186 17.929-7.671 27.675l68.953 121.834c2.665 4.708 7.017 8.101 12.253 9.553 1.811.502 3.65.75 5.478.75 3.455 0 6.864-.889 9.944-2.632l23.453-13.274c4.709-2.665 8.102-7.016 9.553-12.253 1.452-5.236.783-10.713-1.882-15.422l-6.825-12.059 13.467-7.775 106.828 28.625c5.958 1.597 11.885 2.391 17.716 2.39 11.791 0 23.183-3.246 33.596-9.657l151.696-93.408c14.085-8.672 18.563-30.509 9.397-45.814-4.444-7.419-22.665-29.466-70.534-1.587zM129.841 471.574c-.18.647-.68 1.847-2.016 2.602l-23.453 13.274c-2.028 1.151-4.72.406-5.87-1.627L29.55 363.99c-1.15-2.033-.405-4.721 1.627-5.871l23.454-13.274a4.192 4.192 0 0 1 2.082-.549c.486 0 .898.082 1.186.161.647.179 1.847.68 2.603 2.015l58.25 102.923.004.009.004.006 10.694 18.896c.754 1.336.567 2.621.387 3.268zm321.626-116.657-151.695 93.408c-11.888 7.318-24.935 9.148-38.782 5.437l-110.03-29.483a8.005 8.005 0 0 0-6.07.799l-16.218 9.363-40.792-72.076 61.816-35.791c13.823-8.004 28.765-14.714 44.367-9.652 5.071 1.645 10.923 3.76 17.697 6.209 19.448 7.031 43.616 15.769 68.715 20.363 8.418 2.963 13.124 11.089 10.979 19.095-2.826 10.545-11.653 11.849-18.678 11.043-12.273-2.526-23.947-5.857-36.298-9.385-5.874-1.678-11.948-3.413-18.194-5.086a8 8 0 0 0-4.141 15.455c6.119 1.639 12.129 3.355 17.94 5.016 12.77 3.647 24.83 7.091 37.828 9.749.052.01.103.014.155.024.055.01.108.026.164.035l10.396 1.69c15.684 2.509 29.604.063 42.554-7.478l83.591-48.687c23.751-13.834 41.978-15.333 48.756-4.016 4.653 7.769 2.604 19.865-4.06 23.968zM61.148 367.869a8.374 8.374 0 1 1-16.571 2.422 8.374 8.374 0 0 1 16.571-2.422zm157.999-204.473c1.526 3.021 2.028 5.868 1.627 9.229l-2.161 18.081c-1.711 14.312 6.043 27.742 19.294 33.417l10.59 4.535-26.571 57.073a10.12 10.12 0 0 0 1.146 10.465 10.122 10.122 0 0 0 9.807 3.824l27.165-4.746 13.855 23.845a10.12 10.12 0 0 0 9.236 5.039 10.118 10.118 0 0 0 8.748-5.858l25.824-55.467 7.773-2.349c3.242-.98 6.132-.979 9.372 0l7.775 2.35 25.825 55.469a10.121 10.121 0 0 0 9.212 5.866c3.616 0 6.947-1.908 8.772-5.053l13.854-23.842 27.165 4.746a10.124 10.124 0 0 0 9.807-3.824 10.121 10.121 0 0 0 1.147-10.465l-26.572-57.074 10.589-4.535c13.251-5.675 21.005-19.104 19.294-33.417l-2.161-18.081c-.401-3.361.101-6.208 1.628-9.229l8.215-16.251c6.502-12.865 3.809-28.136-6.701-38l-13.277-12.462c-2.469-2.316-3.913-4.819-4.686-8.116l-4.153-17.729c-3.287-14.036-15.166-24.003-29.56-24.804l-18.181-1.011c-3.381-.188-6.097-1.176-8.807-3.206l-14.578-10.911c-11.54-8.639-27.047-8.639-38.587 0l-14.578 10.912c-2.71 2.028-5.426 3.017-8.807 3.205l-18.181 1.011c-14.393.801-26.272 10.768-29.561 24.804l-4.153 17.729c-.772 3.296-2.217 5.799-4.686 8.116l-13.277 12.461c-10.511 9.865-13.203 25.136-6.7 38.001zm62.959 138-11.029-18.98a8 8 0 0 0-8.294-3.861l-21.625 3.778 20.837-44.757 9.796 14.979c5.989 9.159 15.831 14.409 26.261 14.588zm115.448-22.841a8 8 0 0 0-8.294 3.861l-11.029 18.981-15.947-34.254c10.432-.179 20.272-5.429 26.262-14.587l9.796-14.98 20.837 44.757zM228.582 120.81l13.277-12.461c4.774-4.48 7.821-9.758 9.314-16.133l4.153-17.729c1.68-7.171 7.518-12.069 14.871-12.478l18.181-1.012c6.539-.364 12.265-2.448 17.506-6.371l14.578-10.912c2.948-2.207 6.327-3.31 9.706-3.31 3.378 0 6.757 1.104 9.705 3.31l14.577 10.911c5.24 3.924 10.967 6.008 17.507 6.373l18.181 1.011c7.354.409 13.19 5.307 14.87 12.478l4.153 17.729c1.493 6.375 4.54 11.653 9.314 16.133l13.277 12.461c5.37 5.04 6.693 12.544 3.371 19.117l-8.215 16.25c-2.954 5.843-4.013 11.844-3.235 18.346l2.161 18.081c.874 7.313-2.936 13.912-9.706 16.811l-16.738 7.169c-6.019 2.578-10.687 6.495-14.271 11.974l-9.967 15.24c-4.031 6.164-11.19 8.77-18.241 6.64l-17.431-5.268c-6.266-1.894-12.359-1.895-18.629 0l-17.431 5.268c-7.05 2.13-14.21-.476-18.24-6.64l-9.967-15.239c-3.583-5.479-8.251-9.396-14.271-11.975l-16.739-7.169c-6.771-2.899-10.58-9.498-9.706-16.811l2.161-18.081c.776-6.501-.281-12.501-3.234-18.345l-8.215-16.251c-3.319-6.573-1.997-14.076 3.373-19.117zm101.586 106.107c44.733 0 81.127-36.394 81.127-81.127s-36.394-81.128-81.127-81.128-81.127 36.394-81.127 81.128 36.394 81.127 81.127 81.127zm0-146.256c35.911 0 65.127 29.216 65.127 65.128s-29.216 65.127-65.127 65.127-65.127-29.216-65.127-65.127 29.216-65.128 65.127-65.128zm-27.518 77.911-6.618 20.235a10.97 10.97 0 0 0 3.992 12.317 10.97 10.97 0 0 0 12.946-.014l17.197-12.545 17.196 12.544a10.977 10.977 0 0 0 6.484 2.122c2.265 0 4.529-.703 6.463-2.107a10.963 10.963 0 0 0 3.991-12.319l-6.616-20.233 17.245-12.479a10.97 10.97 0 0 0 4.014-12.311 10.971 10.971 0 0 0-10.462-7.601h-.021l-21.286.041-6.539-20.258-.001-.003a10.971 10.971 0 0 0-10.468-7.618 10.967 10.967 0 0 0-10.468 7.621l-6.539 20.258-21.288-.041h-.021a10.97 10.97 0 0 0-10.461 7.601 10.967 10.967 0 0 0 4.014 12.311zm14.128-16.343c4.813-.014 9.011-3.052 10.489-7.621l2.9-8.987 2.901 8.986a10.964 10.964 0 0 0 10.468 7.622h.021l9.444-.018-7.65 5.536a10.965 10.965 0 0 0-4.007 12.332l2.936 8.977-7.631-5.567c-1.938-1.414-4.21-2.12-6.481-2.12s-4.544.707-6.483 2.121l-7.63 5.566 2.936-8.977a10.962 10.962 0 0 0-4.007-12.33l-7.651-5.537zM495 51.44a8 8 0 0 1-10.928-2.928l-1.533-2.655v50.375a8 8 0 0 1-16 0V45.857l-1.533 2.655a8 8 0 0 1-13.856-8L467.611 12a7.999 7.999 0 0 1 13.856 0l16.461 28.511A8 8 0 0 1 495 51.44z" fill="#00bbff" opacity="1" data-original="#00bbff"></path></g></svg>