<svg xmlns="http://www.w3.org/2000/svg" version="1.1" xmlns:xlink="http://www.w3.org/1999/xlink" width="512" height="512" x="0" y="0" viewBox="0 0 500 500" style="enable-background:new 0 0 512 512" xml:space="preserve" class="hovered-paths"><g transform="matrix(1.1299999999999997,0,0,1.1299999999999997,-32.50006149291988,-32.50017356872556)"><path fill-rule="evenodd" d="m328.043 204.034-48.659 48.637-48.665-48.637c-10.855-10.838-10.855-28.525 0-39.363 15.299-15.288 32-7.44 44.14 4.745a6.342 6.342 0 0 0 9.054 0c9.124-9.113 27.015-21.892 44.13-4.745 10.855 10.86 10.823 28.551 0 39.363zm9.053-48.422c-16.441-16.446-38.155-16.069-57.713.593-19.558-16.662-41.267-17.039-57.713-.593-15.837 15.853-15.837 41.628 0 57.481l51.312 51.28c3.516 3.531 9.29 3.527 12.807 0l51.307-51.28c15.835-15.837 15.828-41.643 0-57.481zm51.318 54.407v-21.785l-19.924-6.471c-2.076-.701-3.678-2.372-4.222-4.529a86.515 86.515 0 0 0-9.404-22.647c-1.111-1.887-1.186-4.206-.189-6.201l9.512-18.657-15.405-15.422-18.679 9.544c-1.958.97-4.276.917-6.163-.216-7.102-4.206-14.737-7.387-22.696-9.382-2.114-.593-3.812-2.157-4.486-4.26l-6.471-19.897h-21.795l-6.476 19.897c-.674 2.103-2.367 3.667-4.492 4.26-7.959 1.995-15.594 5.176-22.69 9.382-1.887 1.132-4.217 1.186-6.169.216l-18.668-9.544-15.416 15.422 9.517 18.657c.992 1.995.922 4.314-.194 6.201a87.124 87.124 0 0 0-9.409 22.647c-.545 2.157-2.13 3.828-4.222 4.529l-19.924 6.471v21.785l19.924 6.471c2.081.701 3.678 2.372 4.222 4.475a86.695 86.695 0 0 0 9.409 22.701 6.374 6.374 0 0 1 .194 6.147l-9.517 18.711 15.416 15.422 18.668-9.544c1.952-.97 4.281-.917 6.169.216 7.096 4.206 14.737 7.334 22.69 9.382 2.125.539 3.818 2.157 4.492 4.26l6.476 19.897h21.795l6.471-19.951a6.434 6.434 0 0 1 4.486-4.206c7.97-2.049 15.6-5.176 22.696-9.382 1.887-1.132 4.206-1.186 6.163-.216l18.679 9.544 15.405-15.422-9.512-18.711a6.371 6.371 0 0 1 .189-6.147 87.286 87.286 0 0 0 9.415-22.701c.545-2.103 2.135-3.775 4.211-4.475zm8.379-32.515-21.078-6.848a99.271 99.271 0 0 0-8.078-19.52l10.056-19.736c1.262-2.48.787-5.5-1.176-7.441l-21.979-22c-1.968-1.941-4.961-2.427-7.43-1.132l-19.746 10.03c-6.212-3.343-12.747-6.093-19.509-8.088l-6.843-21.03a6.391 6.391 0 0 0-6.077-4.421h-31.091a6.382 6.382 0 0 0-6.082 4.421l-6.848 21.03c-6.767 1.995-13.297 4.745-19.498 8.088l-19.757-10.03c-2.464-1.294-5.468-.809-7.431 1.132l-21.979 22c-1.963 1.941-2.432 4.961-1.176 7.441l10.062 19.736a99.61 99.61 0 0 0-8.088 19.52l-21.067 6.848a6.396 6.396 0 0 0-4.427 6.093v31.059a6.395 6.395 0 0 0 4.427 6.093l21.067 6.848a101.122 101.122 0 0 0 8.088 19.52l-10.062 19.736c-1.256 2.48-.787 5.446 1.176 7.441l21.979 21.946c1.963 1.995 4.966 2.48 7.431 1.186l19.757-10.029c6.207 3.343 12.742 6.093 19.498 8.088l6.848 21.03a6.384 6.384 0 0 0 6.082 4.421h31.091c2.761 0 5.22-1.78 6.077-4.421l6.853-21.03a105.905 105.905 0 0 0 19.498-8.088l19.746 10.029c2.47 1.294 5.462.809 7.43-1.186l21.979-21.946c1.963-1.995 2.437-4.961 1.176-7.441l-10.056-19.736a100.746 100.746 0 0 0 8.088-19.52l21.067-6.848a6.379 6.379 0 0 0 4.416-6.093v-31.059a6.373 6.373 0 0 0-4.414-6.093zM346.554 448.3c-.857-80.775 20.787-111.457 39.902-138.58 16.468-23.348 32.03-45.402 32.03-98.569 0-92.045-46.804-151.413-125.202-158.8h-.043c-68.066-6.902-131.446 38.554-147.45 105.741-9.722 40.765-13.373 50.633-26.103 70.476-12.262 19.089-24.006 36.775-35.804 53.868h37.589c5.619 0 10.202 4.583 10.202 10.245v28.255l4.443 6.902a6.397 6.397 0 0 1 .092 6.794l-4.535 7.495v12.348c0 10.244 8.286 18.442 18.528 18.28l15.131-.162c13.13-.216 26.697-.378 40.032-.378 3.537 0 6.395 2.858 6.395 6.363V448.3zm84.723-237.149c0-64.118-22.394-123.466-75.016-153.084-17.886-10.084-38.667-16.284-61.757-18.441-74.785-7.309-143.864 42.945-161.157 115.501-9.393 39.363-12.58 48.098-24.421 66.54-13.152 20.49-25.704 39.309-38.371 57.535-4.686 6.735.167 16.069 8.385 16.069h39.94v27.554c0 1.24.361 2.48 1.025 3.505l3.295 5.069-3.386 5.608a6.348 6.348 0 0 0-.933 3.289v14.182c0 8.628 3.106 16.069 9.237 22.108 6.136 6.093 13.589 9.059 22.238 9.005l48.611-.593v65.947c0 5.608 4.707 10.137 10.488 10.137H348.9c5.786 0 10.577-4.514 10.482-10.299-1.305-78.618 18.43-106.604 37.524-133.673 16.905-23.943 34.371-48.747 34.371-105.959z" clip-rule="evenodd" fill="#00ffff" opacity="1" data-original="#00ffff" class="hovered-path"></path></g></svg>