<svg xmlns="http://www.w3.org/2000/svg" version="1.1" xmlns:xlink="http://www.w3.org/1999/xlink" width="512" height="512" x="0" y="0" viewBox="0 0 512 512" style="enable-background:new 0 0 512 512" xml:space="preserve" class=""><g><path d="M503.955 344.309c-4.326-40.419-31.801-73.072-68.457-85.421 13.767-10.081 22.73-26.352 22.73-44.685 0-30.527-24.836-55.363-55.363-55.363s-55.363 24.836-55.363 55.363c0 18.376 9.006 34.68 22.829 44.755-27.636 9.382-50.546 30.413-61.778 58.249l-9.041 4.016a89.61 89.61 0 0 0-18.438-7.645l-4.642-12.059a7.998 7.998 0 0 0-7.466-5.126h-25.931a8 8 0 0 0-7.466 5.126l-4.642 12.059a89.554 89.554 0 0 0-18.438 7.645l-9.041-4.016c-11.232-27.835-34.142-48.867-61.777-58.249 13.823-10.076 22.829-26.379 22.829-44.755 0-30.527-24.835-55.363-55.363-55.363s-55.363 24.836-55.363 55.363c0 18.332 8.963 34.603 22.73 44.685-36.658 12.348-64.133 45.002-68.459 85.422a8 8 0 0 0 7.954 8.851h85.136v47.036a8 8 0 0 0 8 8h43.061v4.965a8 8 0 0 0 5.126 7.466l12.054 4.64a89.603 89.603 0 0 0 7.646 18.444l-5.246 11.812a7.999 7.999 0 0 0 1.654 8.904l18.336 18.336a8 8 0 0 0 8.904 1.655l11.818-5.249a89.577 89.577 0 0 0 18.438 7.645l4.641 12.058a8 8 0 0 0 7.466 5.126h25.931a8 8 0 0 0 7.466-5.126l4.64-12.054a89.602 89.602 0 0 0 18.445-7.646l11.812 5.246a7.999 7.999 0 0 0 8.904-1.654l18.336-18.336a8 8 0 0 0 1.655-8.904l-5.249-11.817a89.554 89.554 0 0 0 7.645-18.438l12.058-4.642a7.998 7.998 0 0 0 5.126-7.466v-4.965h43.061a8 8 0 0 0 8-8V353.16h85.136c2.27 0 4.433-.964 5.95-2.653a7.999 7.999 0 0 0 2.006-6.198zM363.502 214.203c0-21.705 17.658-39.363 39.363-39.363s39.363 17.658 39.363 39.363c0 21.7-17.651 39.355-39.35 39.362h-.024c-21.7-.006-39.352-17.661-39.352-39.362zm-293.729 0c0-21.705 17.658-39.363 39.363-39.363s39.363 17.658 39.363 39.363c0 21.701-17.652 39.357-39.352 39.363h-.024c-21.699-.008-39.35-17.663-39.35-39.363zm39.353 55.362h.022c34.317.004 65.343 20.682 78.746 51.938l-14.462 14.462c-.368.368-.68.775-.963 1.196H25.367c8.332-39.103 42.89-67.591 83.759-67.596zm8.01 122.632V353.16h58.324l1.565 3.524a89.583 89.583 0 0 0-7.646 18.44l-12.057 4.641a7.998 7.998 0 0 0-5.126 7.466v4.966zm226.668 15.472-10.75 4.138a7.998 7.998 0 0 0-4.909 5.614 73.67 73.67 0 0 1-8.955 21.6 8.002 8.002 0 0 0-.5 7.441l4.68 10.537-10.568 10.568-10.532-4.678a7.994 7.994 0 0 0-7.443.5 73.617 73.617 0 0 1-21.604 8.956 7.998 7.998 0 0 0-5.614 4.909L263.473 488h-14.945l-4.137-10.75a8.002 8.002 0 0 0-5.614-4.909 73.692 73.692 0 0 1-21.6-8.955 8 8 0 0 0-7.441-.5l-10.538 4.68-10.568-10.568 4.678-10.533a7.998 7.998 0 0 0-.5-7.442 73.661 73.661 0 0 1-8.957-21.605 7.998 7.998 0 0 0-4.909-5.613l-10.746-4.136v-14.946l10.748-4.137a7.998 7.998 0 0 0 4.909-5.614 73.633 73.633 0 0 1 8.956-21.601 8.004 8.004 0 0 0 .5-7.442l-4.679-10.536 10.568-10.568 10.538 4.68a8.001 8.001 0 0 0 7.442-.5 73.63 73.63 0 0 1 21.599-8.955 8 8 0 0 0 5.614-4.909l4.138-10.75h14.945l4.138 10.75a8 8 0 0 0 5.614 4.909 73.63 73.63 0 0 1 21.599 8.955 8.004 8.004 0 0 0 7.442.5l10.538-4.68 10.568 10.568-4.678 10.533a7.998 7.998 0 0 0 .5 7.442 73.657 73.657 0 0 1 8.957 21.604 8 8 0 0 0 4.909 5.614l10.746 4.136v14.947zm51.06-15.473h-35.061v-4.965a8 8 0 0 0-5.126-7.466l-12.054-4.64a89.57 89.57 0 0 0-7.646-18.445l1.563-3.52h58.325v39.036zm8.005-55.036H339.532a7.936 7.936 0 0 0-.964-1.197l-14.462-14.461c13.403-31.255 44.429-51.933 78.747-51.937H402.874c40.867.005 75.425 28.493 83.759 67.595zM256 340.057c-33.161 0-60.14 26.979-60.14 60.14s26.979 60.139 60.14 60.139 60.14-26.978 60.14-60.139-26.979-60.14-60.14-60.14zm0 104.278c-24.339 0-44.14-19.8-44.14-44.139s19.801-44.14 44.14-44.14 44.14 19.801 44.14 44.14-19.801 44.139-44.14 44.139zm-47.188-236.79v10.397c0 7.426 4.371 13.835 10.666 16.838v4.492c0 7.534 4.496 14.024 10.938 16.97v4.362c0 10.292 8.373 18.665 18.665 18.665h13.841c10.292 0 18.665-8.373 18.665-18.665v-4.361c6.442-2.946 10.938-9.436 10.938-16.97v-4.492c6.294-3.003 10.665-9.412 10.665-16.838v-10.397c1.599-26.695 8.215-38.008 14.616-48.946 5.814-9.937 11.827-20.212 11.827-39.323 0-40.601-33.031-73.631-73.631-73.631s-73.631 33.031-73.631 73.631c0 19.11 6.012 29.386 11.827 39.323 6.399 10.937 13.015 22.25 14.614 48.945zm27.855-80.535h-7.251c-3.998 0-7.251-3.253-7.251-7.251 0-3.999 3.253-7.251 7.251-7.251 3.999 0 7.251 3.253 7.251 7.251zm22.666 72.266h-6.667V143.01h6.667zm27.855 16v2.666c0 1.444-1.22 2.665-2.664 2.665h-57.047c-1.445 0-2.665-1.22-2.665-2.665v-2.666zm-13.329 26.661h-35.716c-1.445 0-2.665-1.22-2.665-2.665v-2.666h41.045v2.666c0 1.445-1.22 2.665-2.664 2.665zm-10.939 21.331h-13.84c-1.444 0-2.665-1.22-2.665-2.665v-2.666h19.17v2.666c0 1.445-1.22 2.665-2.665 2.665zM256 61.645c31.778 0 57.631 25.854 57.631 57.631 0 14.773-4.252 22.041-9.636 31.242-6.106 10.435-13.577 23.204-16.19 48.758h-12.471V143.01h7.251c12.821 0 23.251-10.43 23.251-23.251s-10.431-23.251-23.251-23.251-23.251 10.431-23.251 23.251v7.251h-6.667v-7.251c0-12.821-10.431-23.251-23.251-23.251s-23.251 10.431-23.251 23.251 10.43 23.251 23.251 23.251h7.251v56.266h-12.471c-2.613-25.554-10.084-38.323-16.19-48.758-5.384-9.201-9.636-16.469-9.636-31.242-.001-31.778 25.852-57.631 57.63-57.631zm19.333 65.365v-7.251c0-3.999 3.253-7.251 7.251-7.251s7.251 3.253 7.251 7.251-3.253 7.251-7.251 7.251zM248 31.459V16a8 8 0 0 1 16 0v15.459a8 8 0 0 1-16 0zm-56.158 3.875a8 8 0 0 1 13.856-8l7.729 13.389a8 8 0 1 1-13.857 8zM149.946 69.23a7.998 7.998 0 0 1 10.928-2.928l13.389 7.729a8 8 0 1 1-8.001 13.856l-13.389-7.729a8 8 0 0 1-2.927-10.928zm148.627-28.507 7.729-13.388a8 8 0 0 1 13.856 8l-7.729 13.388a7.998 7.998 0 0 1-10.929 2.928 8 8 0 0 1-2.927-10.928zm36.236 44.237a8 8 0 0 1 2.928-10.928l13.389-7.729a8.001 8.001 0 0 1 8 13.856l-13.389 7.729a7.998 7.998 0 0 1-10.928-2.928z" fill="#00ffff" opacity="1" data-original="#00ffff" class=""></path></g></svg>