<svg xmlns="http://www.w3.org/2000/svg" version="1.1" xmlns:xlink="http://www.w3.org/1999/xlink" width="512" height="512" x="0" y="0" viewBox="0 0 64 64" style="enable-background:new 0 0 512 512" xml:space="preserve" class=""><g transform="matrix(1.0499999999999996,0,0,1.0499999999999996,-1.5992750644683795,-1.5999999999999872)"><path d="M38.178 55.431A.998.998 0 0 0 38 56v6h2v-5.688l5.297-7.651a27.441 27.441 0 0 0 4.697-12.551A.999.999 0 0 0 49 35h-4a1 1 0 0 0-.944.67l-.375 1.088c-.993 3.973-2.71 6.369-5.084 9.688l-.513.717a2.005 2.005 0 0 1-1.628.837h-.026a5.97 5.97 0 0 0 1.54-4c0-3.309-2.691-6-6-6s-6 2.691-6 6c0 1.537.586 2.937 1.54 4a2.004 2.004 0 0 1-1.622-.834l-.515-.72c-2.373-3.319-4.09-5.716-5.108-9.776l-.35-1a1.002 1.002 0 0 0-.944-.67h-4a.999.999 0 0 0-.994 1.11 27.441 27.441 0 0 0 4.697 12.551l5.297 7.651V62h2v-6a.998.998 0 0 0-.178-.569l-5.475-7.908a25.442 25.442 0 0 1-4.205-10.522h2.151l.086.242c1.085 4.343 2.988 7.001 5.397 10.367l.512.717A4.017 4.017 0 0 0 27.515 50h8.941a4.013 4.013 0 0 0 3.257-1.677l.51-.714c2.409-3.366 4.312-6.024 5.372-10.279l.115-.33h2.147a25.431 25.431 0 0 1-4.205 10.522zM31.971 40c2.206 0 4 1.794 4 4s-1.794 4-4 4-4-1.794-4-4 1.794-4 4-4zM32 30c6.065 0 11-4.935 11-11S38.065 8 32 8s-11 4.935-11 11 4.935 11 11 11zm0-20c4.963 0 9 4.037 9 9s-4.037 9-9 9-9-4.037-9-9 4.037-9 9-9z" fill="#00BBFF" opacity="1" data-original="#00BBFF" class=""></path><path d="M16 15a1 1 0 0 0-1 1v6a1 1 0 0 0 1 1l1.555.022a14.675 14.675 0 0 0 1.405 3.36l-1.103 1.103a.997.997 0 0 0 0 1.414l4.243 4.242a.999.999 0 0 0 1.414 0l1.117-1.087c1.059.6 2.185 1.067 3.368 1.391V35a1 1 0 0 0 1 1h6a1 1 0 0 0 1-1l.022-1.555a14.675 14.675 0 0 0 3.36-1.405l1.103 1.102a.999.999 0 0 0 1.414 0l4.243-4.242a.997.997 0 0 0 0-1.414l-1.088-1.117a14.692 14.692 0 0 0 1.391-3.368H48a1 1 0 0 0 1-1v-6a1 1 0 0 0-1-1l-1.555-.022a14.675 14.675 0 0 0-1.405-3.36l1.103-1.103a.999.999 0 0 0 0-1.414L41.9 4.859a.999.999 0 0 0-1.414 0l-1.117 1.088A14.595 14.595 0 0 0 36 4.555V3a1 1 0 0 0-1-1h-6a1 1 0 0 0-1 1l-.022 1.555a14.675 14.675 0 0 0-3.36 1.405l-1.103-1.103a.999.999 0 0 0-1.414 0L17.858 9.1a.999.999 0 0 0 0 1.414l1.088 1.117a14.692 14.692 0 0 0-1.391 3.368H16zm3.48.515c.28-1.005.686-1.979 1.205-2.897.448-.79.32-1.782-.312-2.414l-.396-.396 2.829-2.829.396.396c.632.632 1.625.76 2.413.312a12.95 12.95 0 0 1 2.899-1.205C29.403 6.232 30 5.459 30 4.555V4h4v.555c0 .904.597 1.678 1.485 1.926 1.005.28 1.979.686 2.897 1.205a2.015 2.015 0 0 0 2.414-.312l.396-.396 2.829 2.829-.396.396a2.013 2.013 0 0 0-.312 2.413c.52.919.925 1.894 1.205 2.899.25.888 1.023 1.485 1.927 1.485H47v4h-.555c-.904 0-1.678.597-1.926 1.485a12.963 12.963 0 0 1-1.205 2.897c-.448.79-.32 1.782.312 2.414l.396.396-2.829 2.828-.396-.395a2.012 2.012 0 0 0-2.413-.312 12.95 12.95 0 0 1-2.899 1.205c-.888.25-1.485 1.023-1.485 1.927V34h-4v-.555c0-.904-.597-1.678-1.485-1.926a12.963 12.963 0 0 1-2.897-1.205 2.016 2.016 0 0 0-2.414.312l-.396.395-2.829-2.828.396-.396c.632-.632.76-1.624.312-2.413a12.95 12.95 0 0 1-1.205-2.899c-.25-.888-1.023-1.485-1.927-1.485H17v-4h.555c.904 0 1.677-.597 1.925-1.485z" fill="#00BBFF" opacity="1" data-original="#00BBFF" class=""></path><path d="M31.467 25.846a1.003 1.003 0 0 0 1.066 0C34.478 24.621 39 21.382 39 17.78c0-1.836-1.105-3.239-2.886-3.661-1.319-.311-2.964-.011-4.114 1.051-1.15-1.062-2.793-1.362-4.114-1.051C26.105 14.541 25 15.944 25 17.78c0 3.602 4.522 6.841 6.467 8.066zm-3.12-9.781c.179-.043.37-.064.567-.064.832 0 1.757.391 2.192 1.258.34.676 1.447.676 1.787 0 .538-1.072 1.825-1.418 2.76-1.193.503.119 1.347.5 1.347 1.714 0 1.983-2.584 4.404-5 6.026-2.416-1.622-5-4.043-5-6.026 0-1.214.844-1.595 1.347-1.715z" fill="#00BBFF" opacity="1" data-original="#00BBFF" class=""></path></g></svg>