<svg xmlns="http://www.w3.org/2000/svg" version="1.1" xmlns:xlink="http://www.w3.org/1999/xlink" width="512" height="512" x="0" y="0" viewBox="0 0 510 510" style="enable-background:new 0 0 512 512" xml:space="preserve" fill-rule="evenodd" class=""><g><path d="M128.116 316.27V495a8 8 0 0 1-8 8H15a8 8 0 0 1-8-8V316.27a8 8 0 0 1 8-8h105.116a8 8 0 0 1 8 8zm-16 8H23V487h89.116zm203.442-155.24V495a8 8 0 0 1-8 8H202.442a8 8 0 0 1-8-8V169.03a8 8 0 0 1 8-8h105.116a8 8 0 0 1 8 8zm-16 8h-89.116V487h89.116zM503 255v240a8 8 0 0 1-8 8H389.884a8 8 0 0 1-8-8V255a8 8 0 0 1 8-8H495a8 8 0 0 1 8 8zm-16 8h-89.116v224H487zM245.351 16.166a13.265 13.265 0 0 1 25.231 0l9.698 29.845h31.381a13.266 13.266 0 0 1 7.797 23.997L294.07 88.453l9.697 29.846a13.265 13.265 0 0 1-20.412 14.831l-25.388-18.446-25.389 18.446a13.266 13.266 0 0 1-20.412-14.831l9.697-29.846-25.388-18.445a13.267 13.267 0 0 1 7.797-23.997h31.382zM212.69 62.011l23.28 16.915a8 8 0 0 1 2.906 8.944l-8.892 27.368 23.28-16.915a8.001 8.001 0 0 1 9.405 0l23.28 16.915-8.892-27.368a8 8 0 0 1 2.906-8.944l23.281-16.915h-28.777a8 8 0 0 1-7.608-5.527l-8.892-27.368-8.893 27.368a7.999 7.999 0 0 1-7.608 5.527zm210.734 45.214a13.265 13.265 0 0 1 25.232 0l9.697 29.845h31.382a13.265 13.265 0 0 1 7.797 23.997l-25.389 18.445 9.698 29.846a13.264 13.264 0 0 1-20.413 14.83l-25.388-18.445-25.388 18.445a13.265 13.265 0 0 1-20.413-14.83l9.698-29.846-25.388-18.445a13.264 13.264 0 0 1 7.797-23.997h31.381zm-32.661 45.845 23.281 16.914a8 8 0 0 1 2.906 8.945l-8.892 27.367 23.28-16.914a8 8 0 0 1 9.404 0l23.281 16.914-8.893-27.367a8 8 0 0 1 2.907-8.945l23.28-16.914h-28.776a8 8 0 0 1-7.609-5.528l-8.892-27.367-8.892 27.367a8 8 0 0 1-7.609 5.528zM61.344 163.556a13.266 13.266 0 0 1 25.232 0l9.697 29.846h31.381a13.265 13.265 0 0 1 7.797 23.996l-25.388 18.446 9.698 29.845a13.267 13.267 0 0 1-20.413 14.831L73.96 262.074 48.572 280.52a13.265 13.265 0 0 1-20.413-14.831l9.698-29.845-25.389-18.446a13.265 13.265 0 0 1 7.797-23.996h31.382zm-32.661 45.846 23.28 16.914a8 8 0 0 1 2.907 8.944l-8.893 27.368 23.281-16.914a7.996 7.996 0 0 1 9.404 0l23.28 16.914-8.892-27.368a8 8 0 0 1 2.906-8.944l23.281-16.914H90.461a8 8 0 0 1-7.609-5.528l-8.892-27.368-8.892 27.368a8 8 0 0 1-7.609 5.528z" fill="#00BBFF" opacity="1" data-original="#00BBFF" class=""></path></g></svg>