<svg xmlns="http://www.w3.org/2000/svg" version="1.1" xmlns:xlink="http://www.w3.org/1999/xlink" width="512" height="512" x="0" y="0" viewBox="0 0 512 512" style="enable-background:new 0 0 512 512" xml:space="preserve" class=""><g><path d="M418.513 292.445h-6.663c-10.917 0-19.929-6.021-24.105-16.106-4.178-10.086-2.063-20.716 5.656-28.435l4.711-4.712c3.312-3.312 5.138-7.726 5.138-12.43 0-4.703-1.825-9.117-5.137-12.429l-14.25-14.25v-59.568h5.62c4.928 0 9.327-2.75 11.481-7.176 2.153-4.427 1.602-9.585-1.439-13.463l-32.04-40.852c-3.439-4.385-8.609-6.899-14.184-6.899s-10.744 2.515-14.184 6.899l-32.04 40.852c-3.041 3.878-3.593 9.036-1.439 13.463 2.154 4.426 6.554 7.176 11.481 7.176h5.62v56.667c-3.996.304-8.125-.343-12.169-2.016-10.086-4.179-16.107-13.189-16.107-24.106v-6.664c0-6.118-3.146-11.51-7.901-14.659V69.39h5.619c4.928 0 9.327-2.75 11.481-7.176 2.153-4.427 1.602-9.585-1.439-13.463l-32.04-40.852C266.744 3.515 261.575 1 256 1s-10.744 2.515-14.184 6.899l-32.041 40.852c-3.041 3.878-3.593 9.036-1.439 13.463 2.154 4.426 6.554 7.176 11.481 7.176h5.62v84.346c-4.755 3.149-7.901 8.541-7.901 14.659v6.664c0 10.917-6.021 19.928-16.106 24.105-4.044 1.675-8.173 2.322-12.17 2.018v-56.667h5.62c4.928 0 9.327-2.749 11.48-7.175 2.154-4.427 1.604-9.586-1.438-13.465l-32.04-40.851c-3.439-4.385-8.609-6.899-14.184-6.899s-10.744 2.515-14.184 6.899l-32.041 40.852c-3.041 3.878-3.592 9.037-1.438 13.464 2.153 4.426 6.553 7.175 11.48 7.175h5.619v59.569l-14.249 14.25c-3.312 3.312-5.136 7.727-5.136 12.429 0 4.703 1.824 9.117 5.137 12.43l4.712 4.711c7.719 7.72 9.834 18.351 5.656 28.436s-13.189 16.106-24.105 16.106h-6.664c-9.692 0-17.578 7.885-17.578 17.577v41.772c0 9.692 7.886 17.577 17.578 17.577h6.664c10.916 0 19.928 6.021 24.106 16.107 4.177 10.085 2.062 20.715-5.657 28.435l-4.711 4.712c-3.312 3.312-5.137 7.726-5.138 12.429 0 4.703 1.824 9.117 5.136 12.43l29.538 29.537c6.854 6.854 18.006 6.852 24.858 0l4.712-4.712c7.718-7.72 18.347-9.834 28.435-5.657 10.085 4.178 16.106 13.189 16.106 24.106v6.664c0 9.692 7.885 17.577 17.577 17.577h41.772c9.692 0 17.577-7.885 17.577-17.577v-6.664c0-10.917 6.021-19.928 16.107-24.106 10.089-4.179 20.716-2.062 28.434 5.657l4.713 4.712c6.854 6.852 18.003 6.852 24.858 0l29.537-29.537c6.853-6.854 6.853-18.004 0-24.859l-4.713-4.712c-7.719-7.718-9.833-18.348-5.656-28.434 4.179-10.086 13.19-16.107 24.106-16.107h6.663c9.692 0 17.578-7.885 17.578-17.577v-41.772c.004-9.694-7.881-17.579-17.574-17.579zM330.24 129.516h-8.521l29.202-37.232c.79-1.007 1.83-1.157 2.381-1.157s1.591.15 2.381 1.157l29.201 37.232h-8.521a7.499 7.499 0 0 0-7.5 7.5v52.067l-.287-.287c-6.854-6.852-18.004-6.853-24.859.001l-4.712 4.712c-.412.412-.836.8-1.265 1.18v-57.674a7.5 7.5 0 0 0-7.5-7.499zM224.417 54.39l29.202-37.232C254.41 16.15 255.45 16 256 16s1.591.15 2.38 1.157l29.201 37.232h-8.52a7.499 7.499 0 0 0-7.5 7.5v88.929h-31.124V61.89c0-4.143-3.357-7.5-7.5-7.5zm-88.781 75.126h-8.521l29.202-37.232c.79-1.007 1.83-1.157 2.381-1.157s1.591.15 2.381 1.157l29.202 37.232h-8.521a7.499 7.499 0 0 0-7.5 7.5v57.673c-.428-.38-.853-.768-1.265-1.18l-4.712-4.712c-6.854-6.853-18.005-6.854-24.859-.001l-.288.288v-52.068c0-4.143-3.357-7.5-7.5-7.5zm285.455 222.279c0 1.396-1.181 2.577-2.578 2.577h-6.663c-16.936 0-31.482 9.72-37.964 25.367s-3.068 32.807 8.907 44.781l4.712 4.711c.988.988.988 2.658 0 3.646l-29.536 29.537c-.989.988-2.66.986-3.646 0l-4.712-4.711c-11.977-11.979-29.136-15.39-44.781-8.908-15.647 6.481-25.367 21.028-25.367 37.964v6.664c0 1.396-1.181 2.577-2.577 2.577h-41.772c-1.396 0-2.577-1.181-2.577-2.577v-6.664c0-16.936-9.72-31.483-25.366-37.964-5.243-2.172-10.655-3.232-15.985-3.232-10.578 0-20.833 4.177-28.797 12.14l-4.712 4.712c-.986.988-2.658.988-3.645 0l-29.537-29.537c-.646-.646-.743-1.418-.743-1.821s.097-1.176.744-1.823l4.712-4.712c11.975-11.976 15.389-29.135 8.907-44.782-6.482-15.646-21.029-25.366-37.964-25.366h-6.664c-1.397 0-2.578-1.181-2.578-2.577v-41.772c0-1.396 1.181-2.577 2.578-2.577h6.664c16.936 0 31.482-9.72 37.963-25.366s3.068-32.806-8.907-44.782l-4.712-4.712a2.568 2.568 0 0 1-.743-1.822c0-.402.097-1.176.743-1.821l29.536-29.538c.989-.987 2.658-.986 3.646.001l4.713 4.712c11.978 11.975 29.136 15.386 44.781 8.907 15.646-6.48 25.366-21.027 25.366-37.964v-6.664c0-1.396 1.181-2.577 2.577-2.577h41.772c1.396 0 2.577 1.181 2.577 2.577v6.664c0 16.936 9.72 31.482 25.367 37.965 15.646 6.479 32.805 3.067 44.781-8.908l4.712-4.712c.987-.989 2.657-.99 3.645-.001l29.538 29.538c.646.646.742 1.419.742 1.821 0 .403-.096 1.176-.743 1.822l-4.712 4.712c-11.975 11.976-15.388 29.135-8.907 44.782 6.48 15.646 21.028 25.366 37.964 25.366h6.663c1.397 0 2.578 1.181 2.578 2.577zM256 238.114c-51.168 0-92.796 41.628-92.796 92.795s41.628 92.795 92.796 92.795c51.167 0 92.795-41.628 92.795-92.795S307.167 238.114 256 238.114zm0 170.59c-42.896 0-77.796-34.898-77.796-77.795s34.899-77.795 77.796-77.795 77.795 34.898 77.795 77.795-34.898 77.795-77.795 77.795zm20.501-107.174-13.613-31.577a7.502 7.502 0 0 0-13.776 0l-13.611 31.576-34.239 3.188a7.501 7.501 0 0 0-4.257 13.1l25.825 22.703-7.549 33.548a7.5 7.5 0 0 0 11.144 8.097l29.572-17.545 29.574 17.546a7.495 7.495 0 0 0 8.235-.383 7.5 7.5 0 0 0 2.909-7.714l-7.549-33.546 25.827-22.705a7.5 7.5 0 0 0-4.257-13.1zm-.579 30.666a7.5 7.5 0 0 0-2.365 7.279l4.706 20.913-18.438-10.938a7.497 7.497 0 0 0-7.654 0l-18.436 10.938 4.706-20.915a7.5 7.5 0 0 0-2.365-7.279l-16.101-14.153 21.347-1.988a7.5 7.5 0 0 0 6.192-4.499L256 291.867l8.487 19.688a7.499 7.499 0 0 0 6.192 4.499l21.344 1.987z" fill="#00BBFF" opacity="1" data-original="#00BBFF" class=""></path></g></svg>