<svg xmlns="http://www.w3.org/2000/svg" version="1.1" xmlns:xlink="http://www.w3.org/1999/xlink" width="512" height="512" x="0" y="0" viewBox="0 0 510 510" style="enable-background:new 0 0 512 512" xml:space="preserve" fill-rule="evenodd" class=""><g><path d="M420.2 435.295v38.163c0 16.29-13.263 29.542-29.514 29.542H59.301c-16.287 0-29.543-13.255-29.543-29.542V77.501c0-16.251 13.253-29.514 29.543-29.514h74.825v-5.01a8 8 0 0 1 8-8h41.485C190.188 18.587 206.234 7 224.979 7s34.792 11.586 41.389 27.977h41.465a8 8 0 0 1 8 8v5.01h74.853c16.254 0 29.514 13.26 29.514 29.514v177.156c35.222 14.875 60.042 49.799 60.042 90.33 0 40.533-24.82 75.441-60.042 90.308zM134.126 63.987H59.301c-7.463 0-13.543 6.069-13.543 13.514v395.957c0 7.466 6.077 13.542 13.543 13.542h331.385c7.446 0 13.514-6.079 13.514-13.542V440.47a97.448 97.448 0 0 1-13.932 2.155v22.442a8 8 0 0 1-8 8H67.691a8 8 0 0 1-8-8V85.92a8 8 0 0 1 8-8h66.435zm181.707 0V77.92h66.435a8 8 0 0 1 8 8v161.404a97.309 97.309 0 0 1 13.932 2.156V77.501c0-7.442-6.071-13.514-13.514-13.514zm0 29.933v5.011a8 8 0 0 1-8 8H142.126a8 8 0 0 1-8-8V93.92H75.691v363.147h298.577v-14.445c-50.242-4.097-89.974-46.368-89.974-97.635 0-51.265 39.733-93.561 89.974-97.661V93.92zM150.126 50.977v39.954h149.707V50.977h-39.28a8 8 0 0 1-7.776-6.118C249.743 32.323 238.446 23 224.979 23c-13.46 0-24.755 9.315-27.766 21.846a8 8 0 0 1-7.779 6.131zm74.852 4.527c-5.78 0-10.484-4.735-10.484-10.516 0-5.78 4.704-10.484 10.484-10.484 5.781 0 10.516 4.704 10.516 10.484 0 5.781-4.735 10.516-10.516 10.516zm-84.236 189.483h70.159c8.243 0 14.924 6.682 14.924 14.925v71.114c0 7.466-6.099 13.573-13.6 13.573h-72.807c-7.501 0-13.6-6.107-13.6-13.573v-71.114c0-8.243 6.682-14.925 14.924-14.925zm9.645 16h-8.569v67.612h68.008v-67.612h-8.569V287.1a7.998 7.998 0 0 1-12.274 6.762l-13.161-8.32-13.161 8.32a7.998 7.998 0 0 1-12.274-6.762zm34.87 0h-18.87v11.591l5.16-3.262a7.997 7.997 0 0 1 8.549 0l5.161 3.263zm28.84-117.733a11.442 11.442 0 0 1 21.764 0l5.338 16.427h17.272a11.442 11.442 0 0 1 6.725 20.698l-13.973 10.153 5.337 16.426a11.442 11.442 0 0 1-17.607 12.793l-13.974-10.153-13.973 10.153a11.442 11.442 0 0 1-17.607-12.793l5.337-16.426-13.973-10.153a11.44 11.44 0 0 1 6.725-20.698h17.272zm-8.581 32.427 7.327 5.323a8 8 0 0 1 2.906 8.944l-2.798 8.613 7.326-5.323a8.001 8.001 0 0 1 9.405 0l7.326 5.323-2.798-8.613a8 8 0 0 1 2.906-8.944l7.326-5.323h-9.056a8 8 0 0 1-7.608-5.528l-2.799-8.613-2.798 8.613a8 8 0 0 1-7.609 5.528zm-86.229-32.427a11.442 11.442 0 0 1 21.764 0l5.338 16.427h17.272a11.442 11.442 0 0 1 6.725 20.698l-13.973 10.153 5.337 16.426a11.442 11.442 0 0 1-17.607 12.793l-13.974-10.153-13.973 10.153a11.442 11.442 0 0 1-17.607-12.793l5.337-16.426-13.973-10.153a11.44 11.44 0 0 1 6.725-20.698h17.272zm-8.581 32.427 7.327 5.323a8 8 0 0 1 2.906 8.944l-2.798 8.613 7.326-5.323a8.001 8.001 0 0 1 9.405 0l7.326 5.323-2.798-8.613a8 8 0 0 1 2.906-8.944l7.326-5.323h-9.056a8 8 0 0 1-7.608-5.528l-2.799-8.613-2.798 8.613a8 8 0 0 1-7.609 5.528zm198.201-32.427a11.442 11.442 0 0 1 21.764 0l5.338 16.427h17.272a11.442 11.442 0 0 1 6.725 20.698l-13.973 10.153 5.337 16.426a11.442 11.442 0 0 1-17.607 12.793l-13.974-10.153-13.973 10.153a11.442 11.442 0 0 1-17.607-12.793l5.337-16.426-13.973-10.153a11.44 11.44 0 0 1 6.725-20.698h17.272zm-8.581 32.427 7.327 5.323a8 8 0 0 1 2.906 8.944l-2.798 8.613 7.326-5.323a8.001 8.001 0 0 1 9.405 0l7.326 5.323-2.798-8.613a8 8 0 0 1 2.906-8.944l7.326-5.323h-9.056a8 8 0 0 1-7.608-5.528l-2.799-8.613-2.798 8.613a8 8 0 0 1-7.609 5.528zm-195.7 251.575c-4.415 0-8-3.585-8-8s3.585-8 8-8h187.668c4.415 0 8 3.585 8 8s-3.585 8-8 8zm0-41.064c-4.415 0-8-3.585-8-8s3.585-8 8-8h157.932c4.415 0 8 3.585 8 8s-3.585 8-8 8zm277.655 40.756c45.151 0 81.961-36.81 81.961-81.961S427.432 263 382.281 263c-45.152 0-81.987 36.836-81.987 81.987s36.836 81.961 81.987 81.961zm-11.842-85.384 38.076-38.473.014-.015c8.292-8.334 21.825-8.374 30.16-.083 8.33 8.288 8.385 21.772.097 30.145l-.003.004c-17.754 17.915-35.373 35.937-53.208 53.771-8.33 8.33-21.856 8.33-30.186 0l-29.557-29.584c-8.326-8.326-8.341-21.803-.015-30.172l.015-.015c8.33-8.33 21.856-8.33 30.186 0zm-5.627 17-20.108-20.108a5.349 5.349 0 0 0-7.558 0c-2.076 2.102-2.086 5.474 0 7.559l29.557 29.584a5.347 5.347 0 0 0 7.559 0c17.816-17.816 35.417-35.82 53.153-53.716 2.074-2.096 2.075-5.472-.011-7.547-2.08-2.069-5.457-2.057-7.528.021l-43.721 44.177a8.003 8.003 0 0 1-11.343.03z" fill="#00BBFF" opacity="1" data-original="#00BBFF"></path></g></svg>