<svg xmlns="http://www.w3.org/2000/svg" version="1.1" xmlns:xlink="http://www.w3.org/1999/xlink" width="512" height="512" x="0" y="0" viewBox="0 0 64 64" style="enable-background:new 0 0 512 512" xml:space="preserve" class=""><g transform="matrix(1.429999999999999,0,0,1.429999999999999,-13.76487585067747,-13.758317031860315)"><path d="M22.54 44s-.06-.01-.09-.02V41.6c.8.17.93.75.95.88.08.65 1.06.54.99-.11-.06-.57-.55-1.59-1.94-1.79-.03-.43.18-1.3-.5-1.31-.68 0-.47.89-.5 1.32-1.55.24-2.23 1.34-1.93 2.63.26.83 1.17 1.29 1.93 1.53v2.46c-.82-.09-.9-.54-.96-.91-.1-.65-1.08-.49-.99.15.06.42.27 1.6 1.94 1.75.06.47-.24 1.48.5 1.51.74-.02.44-1.04.5-1.54 2.77-.47 2.46-3.93.09-4.18zm-2.06-1.07c-.18-.56.3-1.25.97-1.33v2.1c-.52-.21-.88-.49-.97-.77zm1.97 4.24v-2.16c1.25.14 1.34 1.88 0 2.16zm11.97-31.25H17.21c-.28 0-.5.22-.5.5v13.91c-2.75-.32-1.11 3.53 0 4.51v2.73l-5.45 6.14c-3.08 3.28-.51 9 3.98 8.87h13.37c2.02 0 3.78-1.1 4.7-2.87.58-.06 1.58.24 1.61-.5V16.42c0-.28-.22-.5-.5-.5zm-16.71 1h16.21v29.82c-.1-1.95-1.77-3.54-2.96-4.93.16-.08.28-.25.28-.44v-3.1c0-.28-.22-.5-.5-.5h-3.25l-1.68-1.95c1.2-.61 2.17-1.71 2.55-2.99h2.37c.28 0 .5-.22.5-.5v-3.09c0-.28-.22-.5-.5-.5h-3.41c-.74.02-.44 1.04-.5 1.59H24.8c-.06-.55.24-1.57-.5-1.59h-3.42c-.74.02-.44 1.04-.5 1.59H17.7V16.92zm12.53 23.95h-.08c-.36-.41-1.47-1.71-1.81-2.1h1.89zm-6.43-10.54h-2.42v-.59h2.42zm4.02.02v-.6h2.41v2.09H28.6c.13-.63-.06-1.34-.77-1.49zm-6.94.98h6.74c.02 2.16-1.89 4.06-4.06 4.01h-3.3c-2.17.05-4.06-1.89-4.09-4.01zm-2.91 4.46c.07.04.14.08.22.11l-.49.55v-.8c.09.05.18.1.27.14zm10.63 15.79H15.24c-1.73 0-3.24-.98-3.95-2.56s-.43-3.36.72-4.65l7.23-8.14c.71.18 3.57.09 4.33.11.42 0 .84-.07 1.25-.15 1.93 2.24 5.12 5.97 7.07 8.24 2.42 2.66.33 7.26-3.28 7.16zm5.31-2.87h-.19c.1-.33.14-.67.19-1zM53.6 29.84h-2.11V18.26c0-.28-.22-.5-.5-.5h-1.96c0-.09.01-2.88-.02-2.86-.13-1.95-1.76-3.49-3.71-3.49s-3.6 1.55-3.7 3.51c-.06-.08 0 2.78-.03 2.84h-1.96c-.28 0-.5.22-.5.5v11.58H37c-.28 0-.5.22-.5.5v18.88c0 .28.22.5.5.5h16.61c.28 0 .5-.22.5-.5V30.34c0-.28-.22-.5-.5-.5zm-8.3-17.42c1.24 0 2.31.85 2.62 2.02h-5.24a2.721 2.721 0 0 1 2.62-2.02zm-2.73 3.02h5.45v2.32h-5.46v-2.32zm-2.47 3.32h10.39v11.08h-2v-8.83c0-.28-.22-.5-.5-.5h-5.22c-.28 0-.5.22-.5.5v8.83h-2.18V18.76zm4.79 6.91v4.16h-1.61V21.5h1.61v4.16zm1 0v-4.16h1.61v8.33h-1.61v-4.16zm-4.93 23.05v-3.63h2.41v3.63zm6.43 0v-3.63h2.41v3.63zm5.71 0h-2.29v-4.13c0-.28-.22-.5-.5-.5H46.9c-.28 0-.5.22-.5.5v4.13h-2.02v-4.13c0-.28-.22-.5-.5-.5h-3.41c-.28 0-.5.22-.5.5v4.13H37.5V30.84h15.61v17.88zm-9.22-15.88h-3.41c-.28 0-.5.22-.5.5v7.71c0 .28.22.5.5.5h3.41c.28 0 .5-.22.5-.5v-7.71c0-.28-.22-.5-.5-.5zm-.5 7.7h-2.41v-6.71h2.41zm6.93-7.7H46.9c-.28 0-.5.22-.5.5v7.71c0 .28.22.5.5.5h3.41c.28 0 .5-.22.5-.5v-7.71c0-.28-.22-.5-.5-.5zm-.5 7.7H47.4v-6.71h2.41zM20.89 23.8h3.41c.28 0 .5-.22.5-.5v-3.1c0-.28-.22-.5-.5-.5h-3.41c-.28 0-.5.22-.5.5v3.1c0 .28.22.5.5.5zm.5-3.09h2.41v2.1h-2.41zm5.94 3.09h3.41c.28 0 .5-.22.5-.5v-3.1c0-.28-.22-.5-.5-.5h-3.41c-.28 0-.5.22-.5.5v3.1c0 .28.22.5.5.5zm.5-3.09h2.41v2.1h-2.41z" fill="#00ffff" opacity="1" data-original="#00ffff" class=""></path></g></svg>