<svg xmlns="http://www.w3.org/2000/svg" version="1.1" xmlns:xlink="http://www.w3.org/1999/xlink" width="512" height="512" x="0" y="0" viewBox="0 0 512 512" style="enable-background:new 0 0 512 512" xml:space="preserve" class=""><g><path d="M427.09 317.084c3.548 13.488 15.845 23.466 30.432 23.466 17.35 0 31.465-14.115 31.465-31.466s-14.115-31.466-31.465-31.466c-14.587 0-26.884 9.978-30.432 23.466h-78.044v-25.947h34.474a8.001 8.001 0 0 0 7.654-5.673l11.356-37.356c35.564-5.601 62.852-36.454 62.852-73.568a8 8 0 0 0-8-8h-10.708l-36.517-65.352c4.437-4.728 7.163-11.08 7.163-18.061 0-3.699-.767-7.221-2.146-10.42h2.817a8 8 0 0 0 0-16H281.178a26.538 26.538 0 0 0-17.179-17.179V9a8 8 0 0 0-16 0v14.528a26.538 26.538 0 0 0-17.179 17.179H94.008a8 8 0 0 0 0 16h2.817a26.276 26.276 0 0 0-2.146 10.42c0 6.981 2.726 13.333 7.164 18.062L65.326 150.54H54.618a8 8 0 0 0-8 8c0 37.114 27.288 67.967 62.853 73.568l11.355 37.356a8 8 0 0 0 7.654 5.673h34.476v25.947H84.91c-3.548-13.488-15.845-23.466-30.432-23.466-17.35 0-31.465 14.115-31.465 31.466s14.115 31.466 31.465 31.466c14.587 0 26.884-9.978 30.432-23.466h78.046v25.947H88.479a8 8 0 0 0-7.654 5.673l-15.714 51.693c-.397-.015-.793-.03-1.194-.03-17.351 0-31.466 14.115-31.466 31.466s14.115 31.466 31.466 31.466 31.465-14.115 31.465-31.466c0-11.302-5.992-21.228-14.964-26.777l13.991-46.025h68.547v11.77c0 8.079 6.573 14.652 14.652 14.652H193.5v46.484l-26.89 19.356a31.319 31.319 0 0 0-20.012-7.202c-17.351 0-31.466 14.115-31.466 31.466s14.115 31.466 31.466 31.466 31.465-14.115 31.465-31.466c0-3.976-.749-7.777-2.1-11.282l30.21-21.746a8.003 8.003 0 0 0 3.326-6.493v-50.583H248v63.65c-13.488 3.549-23.466 15.845-23.466 30.431C224.534 496.885 238.649 511 256 511s31.466-14.115 31.466-31.466c0-14.586-9.978-26.883-23.466-30.431v-63.65h38.501v50.583a8.003 8.003 0 0 0 3.326 6.493l30.209 21.746a31.3 31.3 0 0 0-2.1 11.282c0 17.351 14.115 31.466 31.466 31.466s31.465-14.115 31.465-31.466-14.115-31.466-31.465-31.466a31.323 31.323 0 0 0-20.013 7.202L318.5 431.937v-46.484h15.892c8.079 0 14.652-6.573 14.652-14.652v-11.77h68.545l13.991 46.025c-8.972 5.549-14.964 15.475-14.964 26.777 0 17.351 14.115 31.466 31.466 31.466s31.466-14.115 31.466-31.466-14.115-31.466-31.466-31.466c-.401 0-.798.015-1.195.03l-15.714-51.693a8 8 0 0 0-7.654-5.673h-74.475v-25.947h78.044zm30.432-23.466c8.527 0 15.465 6.938 15.465 15.466s-6.938 15.466-15.465 15.466-15.466-6.938-15.466-15.466 6.938-15.466 15.466-15.466zM54.478 324.55c-8.527 0-15.465-6.938-15.465-15.466s6.938-15.466 15.465-15.466 15.466 6.938 15.466 15.466-6.938 15.466-15.466 15.466zm9.439 122.749c-8.528 0-15.466-6.938-15.466-15.466s6.938-15.466 15.466-15.466 15.465 6.938 15.465 15.466-6.938 15.466-15.465 15.466zm82.682 43.724c-8.528 0-15.466-6.938-15.466-15.466s6.938-15.466 15.466-15.466 15.465 6.938 15.465 15.466-6.938 15.466-15.465 15.466zm124.868-11.489c0 8.528-6.938 15.466-15.466 15.466s-15.466-6.938-15.466-15.466 6.938-15.465 15.466-15.465 15.466 6.938 15.466 15.465zm93.936-19.442c8.527 0 15.465 6.938 15.465 15.466s-6.938 15.466-15.465 15.466-15.466-6.938-15.466-15.466 6.938-15.466 15.466-15.466zm98.147-28.259c0 8.528-6.938 15.466-15.466 15.466s-15.466-6.938-15.466-15.466 6.938-15.466 15.466-15.466 15.466 6.938 15.466 15.466zm-85.96-172.696h-28.544v-11.77c0-8.079-6.573-14.652-14.652-14.652H264V73.886a26.538 26.538 0 0 0 17.179-17.179h85.447a26.276 26.276 0 0 0-2.146 10.42c0 7.038 2.771 13.437 7.273 18.177l-34.536 65.237h-12.799a8 8 0 0 0-8 8c0 39.283 30.575 71.538 69.174 74.271l-8.003 26.325zm13.31-42.116c-29.532 0-54.023-22.007-57.937-50.481h115.873c-3.913 28.475-28.404 50.481-57.937 50.481zm-35.578-66.481 30.439-57.499a26.458 26.458 0 0 0 10.44-.029l32.145 57.528zm45.998-83.413c0 5.745-4.675 10.42-10.42 10.42s-10.42-4.675-10.42-10.42 4.675-10.42 10.42-10.42 10.42 4.675 10.42 10.42zM256 38.287c5.745 0 10.42 4.675 10.42 10.42s-4.675 10.42-10.42 10.42-10.42-4.675-10.42-10.42 4.675-10.42 10.42-10.42zm-124.48 28.84c0 5.745-4.675 10.42-10.42 10.42s-10.42-4.675-10.42-10.42 4.675-10.42 10.42-10.42 10.42 4.675 10.42 10.42zM115.8 93.012c1.713.35 3.485.534 5.3.534s3.587-.184 5.3-.534l32.146 57.528H83.655zM63.163 166.54h115.873c-3.913 28.475-28.404 50.481-57.937 50.481s-54.023-22.007-57.937-50.481zm71.247 92.597-8.002-26.325c38.599-2.734 69.173-34.989 69.173-74.271a8 8 0 0 0-8-8h-10.708L140.355 85.19c4.438-4.728 7.164-11.081 7.164-18.062 0-3.699-.767-7.221-2.146-10.42h85.447a26.538 26.538 0 0 0 17.179 17.179v158.829h-70.392c-8.079 0-14.652 6.573-14.652 14.652v11.77h-28.546zm198.636 110.316h-154.09V248.715h154.09zm-77.045-101.356c-22.865 0-41.467 18.603-41.467 41.468s18.602 41.467 41.467 41.467 41.467-18.602 41.467-41.467-18.602-41.468-41.467-41.468zm0 66.934c-14.042 0-25.467-11.425-25.467-25.467s11.425-25.468 25.467-25.468 25.467 11.425 25.467 25.468-11.425 25.467-25.467 25.467z" fill="#00ffff" opacity="1" data-original="#00ffff" class=""></path></g></svg>