<svg xmlns="http://www.w3.org/2000/svg" version="1.1" xmlns:xlink="http://www.w3.org/1999/xlink" width="512" height="512" x="0" y="0" viewBox="0 0 62 62" style="enable-background:new 0 0 512 512" xml:space="preserve" class=""><g><path d="M44 52h4v2h-4zM48 38h6v2h-6zM50 42h4v2h-4z" fill="#00bbff" opacity="1" data-original="#00bbff" class=""></path><path d="M31 0c-4.386 0-8.61.906-12.576 2.672A4.987 4.987 0 0 0 14 0a4.99 4.99 0 0 0-4.437 2.693 4.439 4.439 0 0 1-1.87 1.87A4.987 4.987 0 0 0 5 9c0 .261.022.52.067.781a6.014 6.014 0 0 0-2.952 6.408v.001c.129.666.385 1.289.724 1.859A30.709 30.709 0 0 0 0 31c0 17.093 13.906 31 31 31s31-13.907 31-31S48.094 0 31 0zm19 52.881a29.055 29.055 0 0 1-8 4.946V50h8zM46 48h-6v10.563a28.66 28.66 0 0 1-4 .996V46h10zm-2-4H34v15.845c-.66.068-1.328.107-2 .13V42.949c5.819-.484 10.466-5.13 10.949-10.949h17.025A28.795 28.795 0 0 1 58 41.562V34H44zM15 30v-4.091a6.01 6.01 0 0 0 4.917-4.91c.438.012.879-.036 1.318-.125 2.328-.473 4.197-2.355 4.649-4.686a6.015 6.015 0 0 0-2.952-6.408A4.46 4.46 0 0 0 23 9a4.99 4.99 0 0 0-2.693-4.438 4.403 4.403 0 0 1-.506-.315A28.67 28.67 0 0 1 30 2.027V19.05c-5.819.484-10.466 5.131-10.949 10.95zm-8.235-9.125c.44.089.895.13 1.318.125A6.013 6.013 0 0 0 13 25.91V30H2.027a28.655 28.655 0 0 1 2.258-10.292c.718.568 1.56.98 2.48 1.167zM42.949 30a11.919 11.919 0 0 0-.484-2.542l5.426-8.44A2.208 2.208 0 0 1 49.755 18h.125c.887 0 1.687.527 2.036 1.342L56.484 30zm-15.077 7h6.256c-.789 2.459-1.997 4-3.128 4s-2.338-1.541-3.128-4zM31 21c1.131 0 2.338 1.541 3.128 4h-6.256c.79-2.459 1.997-4 3.128-4zm-5.242 4h-2.739a10.048 10.048 0 0 1 4.042-3.189c-.524.892-.965 1.968-1.303 3.189zm9.18-3.189A10.041 10.041 0 0 1 38.98 25h-2.739c-.337-1.221-.778-2.297-1.303-3.189zM34.636 27c.176.927.295 1.934.341 3h-7.954c.047-1.066.165-2.073.341-3zm.341 5a21.128 21.128 0 0 1-.341 3h-7.271a20.984 20.984 0 0 1-.341-3zm1.265 5h2.739a10.048 10.048 0 0 1-4.042 3.189c.524-.892.965-1.968 1.303-3.189zm3.917-2h-3.482a23.88 23.88 0 0 0 .299-3h3.973a9.893 9.893 0 0 1-.79 3zm-3.183-5a23.88 23.88 0 0 0-.299-3h3.482c.41.935.685 1.942.79 3zm4.542-4.767a12.062 12.062 0 0 0-6.201-5.417l2.703-5.569A2.23 2.23 0 0 1 40.013 13a2.2 2.2 0 0 1 1.981 1.225l2.888 5.776zM21.841 27h3.482a23.88 23.88 0 0 0-.299 3h-3.973a9.893 9.893 0 0 1 .79-3zm3.183 5a23.88 23.88 0 0 0 .299 3h-3.482a9.893 9.893 0 0 1-.79-3zm.734 5c.338 1.221.779 2.297 1.304 3.189A10.041 10.041 0 0 1 23.02 37zm34.217-7H58.66l-4.905-11.446A4.213 4.213 0 0 0 49.88 16h-.125c-1.44 0-2.766.724-3.545 1.936l-.07.109-2.357-4.714A4.193 4.193 0 0 0 40.013 11a4.236 4.236 0 0 0-3.791 2.375l-2.846 5.864a11.75 11.75 0 0 0-1.375-.187V2.025C47.196 2.544 59.456 14.804 59.975 30zM6.598 11.27l.919-.347-.33-.925A2.969 2.969 0 0 1 7 9c0-1.124.619-2.144 1.617-2.663a6.459 6.459 0 0 0 2.72-2.72C11.856 2.62 12.877 2 14 2s2.144.62 2.663 1.617a6.453 6.453 0 0 0 2.72 2.72A2.991 2.991 0 0 1 21 9c0 .318-.062.645-.187.998l-.33.925.919.347c1.865.702 2.9 2.569 2.52 4.539a3.98 3.98 0 0 1-3.085 3.107 4.11 4.11 0 0 1-1.646.003l-1.235-.254.034 1.261c.002.042.005.083.011.126-.024 1.836-1.296 3.363-3 3.807v-8.292l4.515-2.709-1.029-1.715L15 13.234v-2.648l-3.293-3.293-1.414 1.414L13 11.414v4.82l-3.485-2.091-1.029 1.715L13 18.566v5.292c-1.705-.443-2.977-1.972-3-3.809l.045-1.385-1.235.254a4.11 4.11 0 0 1-1.646-.003 3.978 3.978 0 0 1-3.085-3.106c-.382-1.971.653-3.837 2.519-4.539zM5.171 44.159c.486.15.855.393 1.275.673.78.521 1.75 1.168 3.553 1.168s2.774-.647 3.555-1.168C14.251 44.367 14.802 44 16 44s1.749.367 2.446.832c.781.521 1.752 1.168 3.555 1.168v-2c-1.197 0-1.748-.367-2.445-.832-.644-.43-1.426-.94-2.69-1.107A29.8 29.8 0 0 1 16.002 35v-1.618l-1.447.724a11.773 11.773 0 0 0-6.485 9.392 11.24 11.24 0 0 1-.514-.33c-.753-.503-1.692-1.118-3.378-1.16A28.79 28.79 0 0 1 2.025 32H19.05c.483 5.819 5.13 10.466 10.949 10.949v9.864a5.367 5.367 0 0 0-2.137-.753A29.9 29.9 0 0 1 27 45v-1.618l-1.447.724a11.773 11.773 0 0 0-6.485 9.392 11.24 11.24 0 0 1-.514-.33C17.773 52.648 16.803 52 15 52v2c1.196 0 1.747.367 2.444.832.781.521 1.751 1.168 3.553 1.168 1.803 0 2.774-.647 3.556-1.168.697-.465 1.248-.832 2.446-.832 1.197 0 1.749.367 2.446.833.177.118.36.238.555.355v4.787c-10.83-.37-20.168-6.703-24.829-15.816zm4.872-.161c.207-2.921 1.665-5.558 4.006-7.255.099 1.806.361 3.599.766 5.363-1.082.205-1.781.669-2.37 1.062-.689.459-1.237.821-2.402.83zm15.77 8.108c-1.081.205-1.78.669-2.37 1.062-.688.459-1.236.821-2.401.83.207-2.921 1.665-5.558 4.006-7.255.099 1.806.361 3.599.765 5.363zM52 50.968V48h-4v-4h-2v-8h10v9.671a29.128 29.128 0 0 1-4 5.297z" fill="#00bbff" opacity="1" data-original="#00bbff" class=""></path></g></svg>