<svg xmlns="http://www.w3.org/2000/svg" version="1.1" xmlns:xlink="http://www.w3.org/1999/xlink" width="512" height="512" x="0" y="0" viewBox="0 0 64 64" style="enable-background:new 0 0 512 512" xml:space="preserve" class=""><g><path d="M9 44h4a1 1 0 0 0 1-1v-4a1 1 0 0 0-1-1H9a1 1 0 0 0-1 1v4a1 1 0 0 0 1 1Zm1-4h2v2h-2ZM9 52h4a1 1 0 0 0 1-1v-4a1 1 0 0 0-1-1H9a1 1 0 0 0-1 1v4a1 1 0 0 0 1 1Zm1-4h2v2h-2Zm41-4h4a1 1 0 0 0 1-1v-4a1 1 0 0 0-1-1h-4a1 1 0 0 0-1 1v4a1 1 0 0 0 1 1Zm1-4h2v2h-2Zm-1 12h4a1 1 0 0 0 1-1v-4a1 1 0 0 0-1-1h-4a1 1 0 0 0-1 1v4a1 1 0 0 0 1 1Zm1-4h2v2h-2Zm9-12a1 1 0 0 0 1-1v-4a1 1 0 0 0-1-1H51v-6h2a1 1 0 0 0 1-1v-4a1 1 0 0 0-1-1H35l-.001-1.634a10.24 10.24 0 0 0 1.812.173 5.922 5.922 0 0 0 2.637-.546 9.068 9.068 0 0 0 4.527-5.672.998.998 0 0 0-.659-1.171 11.514 11.514 0 0 0-6.632 0 4.76 4.76 0 0 0-1.807 1.098 5.172 5.172 0 0 0-3.56-4.542 15.479 15.479 0 0 0-6.463-.597 1 1 0 0 0-.835 1.182c.036.18.912 4.446 4.534 6.257a8.146 8.146 0 0 0 3.553.703c.324 0 .623-.014.891-.032L33 18H14a1 1 0 0 0-1 1v4a1 1 0 0 0 1 1h2v6H3a1 1 0 0 0-1 1v4a1 1 0 0 0 1 1h1v24H3a1 1 0 0 0 0 2h58a1 1 0 0 0 0-2h-1V36ZM37.316 11.047a9.167 9.167 0 0 1 4.367-.232 6.898 6.898 0 0 1-3.13 3.39 5.866 5.866 0 0 1-3.504.138 3.764 3.764 0 0 1 2.267-3.296Zm-7.869-.287a6.914 6.914 0 0 1-3.123-3.756 13.005 13.005 0 0 1 4.36.599c1.087.363 2.1 1.07 2.286 3.617a7.302 7.302 0 0 1-3.523-.46ZM16 60H6V36h10Zm0-26H4v-2h12Zm-1-12v-2h37v2Zm19 38H24v-4h10Zm-11-6h-1v-2h14v2H23Zm17 6h-4v-4h1a1 1 0 0 0 1-1v-4a1 1 0 0 0-1-1H21a1 1 0 0 0-1 1v4a1 1 0 0 0 1 1h1v4h-4V28h22Zm6-29v29h-4V27a1 1 0 0 0-1-1H18v-2h31v6h-2a1 1 0 0 0-1 1Zm12 29H48V36h10Zm1-26H48v-2h12v2ZM12 16a4 4 0 1 0-4-4 4.004 4.004 0 0 0 4 4Zm0-6a2 2 0 1 1-2 2 2.002 2.002 0 0 1 2-2Zm-1-5V3a1 1 0 0 1 2 0v2a1 1 0 0 1-2 0Zm8 6h2a1 1 0 0 1 0 2h-2a1 1 0 0 1 0-2ZM2 12a1 1 0 0 1 1-1h2a1 1 0 0 1 0 2H3a1 1 0 0 1-1-1Zm14.357-4.234a.999.999 0 0 1-.123-1.409l1.243-1.482A1 1 0 0 1 19.01 6.16l-1.244 1.483a.999.999 0 0 1-1.409.123ZM4.875 6.52A1 1 0 0 1 6.161 4.99l1.482 1.244a1 1 0 1 1-1.286 1.532ZM31 37h5a1 1 0 0 0 1-1v-5a1 1 0 0 0-1-1h-5a1 1 0 0 0-1 1v5a1 1 0 0 0 1 1Zm1-5h3v3h-3Zm-10 5h5a1 1 0 0 0 1-1v-5a1 1 0 0 0-1-1h-5a1 1 0 0 0-1 1v5a1 1 0 0 0 1 1Zm1-5h3v3h-3Zm8 14h5a1 1 0 0 0 1-1v-5a1 1 0 0 0-1-1h-5a1 1 0 0 0-1 1v5a1 1 0 0 0 1 1Zm1-5h3v3h-3Zm-10 5h5a1 1 0 0 0 1-1v-5a1 1 0 0 0-1-1h-5a1 1 0 0 0-1 1v5a1 1 0 0 0 1 1Zm1-5h3v3h-3Z" data-name="21- food delivery copy" fill="#00ffff" opacity="1" data-original="#00ffff" class=""></path></g></svg>