<svg xmlns="http://www.w3.org/2000/svg" version="1.1" xmlns:xlink="http://www.w3.org/1999/xlink" width="512" height="512" x="0" y="0" viewBox="0 0 64 64" style="enable-background:new 0 0 512 512" xml:space="preserve" class=""><g><g data-name="Smart Car"><path d="M17 54a3 3 0 1 0 3 3 3.003 3.003 0 0 0-3-3Zm0 4a1 1 0 1 1 1-1 1.001 1.001 0 0 1-1 1ZM45 54a3 3 0 1 0 3 3 3.003 3.003 0 0 0-3-3Zm0 4a1 1 0 1 1 1-1 1.001 1.001 0 0 1-1 1ZM27 44h16.83a1 1 0 0 0 .774-1.632l-5.131-6.285A3.03 3.03 0 0 0 37.16 35H27a1 1 0 0 0-1 1v7a1 1 0 0 0 1 1Zm1-7h9.16a1.027 1.027 0 0 1 .776.362L41.723 42H28ZM24 43v-7a1 1 0 0 0-1-1H12.75a1.976 1.976 0 0 0-1.693.923l-4.16 6.54A1 1 0 0 0 7.74 44H23a1 1 0 0 0 1-1Zm-2-1H9.563l3.187-5H22ZM27 48h2a1 1 0 0 0 0-2h-2a1 1 0 0 0 0 2Z" fill="#00ffff" opacity="1" data-original="#00ffff" class=""></path><path d="M63 56h-1.184A2.965 2.965 0 0 0 62 55v-6.658a3.993 3.993 0 0 0-3.03-3.88l-8.763-2.191a1.987 1.987 0 0 1-1.063-.674l-6.569-8.03A6.977 6.977 0 0 0 37.156 31h-24.41a5.972 5.972 0 0 0-5.063 2.779l-4.588 7.21A6.988 6.988 0 0 0 2 44.747V55a2.965 2.965 0 0 0 .184 1H1a1 1 0 0 0 0 2h9.08a6.981 6.981 0 0 0 2.03 4H8a1 1 0 0 0 0 2h9a7.005 7.005 0 0 0 6.92-6h14.16a6.981 6.981 0 0 0 2.03 4H35a1 1 0 0 0 0 2h11a.972.972 0 0 0 .53-.174A7.01 7.01 0 0 0 51.92 58H63a1 1 0 0 0 0-2Zm-3-7.658v1.596a6.096 6.096 0 0 1-5.161-4.447l3.646.911A1.997 1.997 0 0 1 60 48.342ZM4 49h2l.001 2H4Zm0 6v-2h2a2.002 2.002 0 0 0 2-2v-2a2.002 2.002 0 0 0-2-2H4v-2.253a4.99 4.99 0 0 1 .782-2.684l4.588-7.21A3.982 3.982 0 0 1 12.745 33h24.411a4.981 4.981 0 0 1 3.87 1.834l6.57 8.03a4.031 4.031 0 0 0 2.127 1.347l2.9.725A8.296 8.296 0 0 0 60 51.948V55a1.001 1.001 0 0 1-1 1h-7.08a6.99 6.99 0 0 0-13.84 0H23.92a6.99 6.99 0 0 0-13.84 0H5a1.001 1.001 0 0 1-1-1Zm13 7a5 5 0 1 1 5-5 5.006 5.006 0 0 1-5 5Zm28 0a5 5 0 1 1 5-5 5.006 5.006 0 0 1-5 5Z" fill="#00ffff" opacity="1" data-original="#00ffff" class=""></path><path d="M5 62H3a1 1 0 0 0 0 2h2a1 1 0 0 0 0-2ZM32 62h-2a1 1 0 0 0 0 2h2a1 1 0 0 0 0-2ZM25 29a1 1 0 0 0 1-1v-7.184a3 3 0 1 0-2 0V28a1 1 0 0 0 1 1Zm0-12a1 1 0 1 1-1 1 1.001 1.001 0 0 1 1-1ZM55 24a3 3 0 1 0-3 3 3.003 3.003 0 0 0 3-3Zm-4 0a1 1 0 1 1 1 1 1.001 1.001 0 0 1-1-1ZM29.243 13.757a1 1 0 1 0 1.414-1.414 8.002 8.002 0 0 0-11.314 0 1 1 0 1 0 1.414 1.414 6.003 6.003 0 0 1 8.486 0Z" fill="#00ffff" opacity="1" data-original="#00ffff" class=""></path><path d="M33.49 10.51a1 1 0 0 0 .707-1.707 13.024 13.024 0 0 0-18.394 0 1 1 0 0 0 1.414 1.414 11.024 11.024 0 0 1 15.566 0 .997.997 0 0 0 .707.293Z" fill="#00ffff" opacity="1" data-original="#00ffff" class=""></path><path d="M13.701 6.694a15.953 15.953 0 0 1 22.599 0 1 1 0 0 0 1.42-1.408 17.955 17.955 0 0 0-25.44 0A1 1 0 0 0 13.7 6.695ZM7 27a2.995 2.995 0 0 0 2.816-2H11a1 1 0 0 0 0-2H9.816A2.995 2.995 0 1 0 7 27Zm0-4a1 1 0 1 1-1 1 1.001 1.001 0 0 1 1-1ZM20 23a1 1 0 0 0 0 2h1a1 1 0 0 0 0-2ZM15 23a1 1 0 0 0 0 2h1a1 1 0 0 0 0-2ZM29 25h1a1 1 0 0 0 0-2h-1a1 1 0 0 0 0 2ZM34 25h1a1 1 0 0 0 0-2h-1a1 1 0 0 0 0 2ZM39 25h1a1 1 0 0 0 0-2h-1a1 1 0 0 0 0 2ZM44 25h1.137c.833 3.566 5.586 8.167 6.175 8.726a1 1 0 0 0 1.375 0C53.334 33.113 59 27.639 59 24a6.996 6.996 0 0 0-13.92-1H44a1 1 0 0 0 0 2Zm8-6a5.006 5.006 0 0 1 5 5c0 1.89-2.831 5.396-5 7.598-2.169-2.202-5-5.709-5-7.598a5.006 5.006 0 0 1 5-5Z" fill="#00ffff" opacity="1" data-original="#00ffff" class=""></path></g></g></svg>