<svg xmlns="http://www.w3.org/2000/svg" version="1.1" xmlns:xlink="http://www.w3.org/1999/xlink" width="512" height="512" x="0" y="0" viewBox="0 0 512 512" style="enable-background:new 0 0 512 512" xml:space="preserve" class=""><g><path fill-rule="evenodd" d="M162.284 92.083a5.994 5.994 0 0 1 5.954 10.406 177.842 177.842 0 0 0-65.752 65.754 5.994 5.994 0 1 1-10.406-5.954 189.57 189.57 0 0 1 70.2-70.206zm62.106 274.178a6 6 0 0 1 8.484 8.484l-6.842 6.842a6 6 0 1 1-8.484-8.484zm-7.09-29.125a6 6 0 0 1 0 12h-9.68a6 6 0 0 1 0-12zm15.578-25.61a6 6 0 1 1-8.484 8.484l-6.842-6.842a6 6 0 0 1 8.484-8.484zm46.251 63.219a6 6 0 0 1 8.484-8.484l6.842 6.842a6 6 0 1 1-8.484 8.484zm15.571-25.609a6 6 0 0 1 0-12h9.676a6 6 0 0 1 0 12zm-7.094-29.126a6 6 0 1 1-8.484-8.484l6.842-6.842a6 6 0 0 1 8.484 8.484zM262 304.432a6 6 0 0 1-12 0v-9.676a6 6 0 0 1 12 0zm0 63.341v58.785h26.7v-16.311h.018a5.98 5.98 0 0 1 3.544-5.461 88.725 88.725 0 1 0-72.958-.193 6 6 0 0 1 3.988 5.654v16.311H250v-58.785c-19.058-4.626-25.963-28.527-11.926-42.563 15.935-15.935 43.278-4.582 43.278 17.926A25.365 25.365 0 0 1 262 367.773zm3.442-34.079a13.353 13.353 0 1 1-22.794 9.442 13.356 13.356 0 0 1 22.794-9.442zm15.91 140.374h6.989a19.388 19.388 0 0 0 19.346-19.346v-22.164a6 6 0 0 0-6-6h-.987v-12.533c61.443-30.5 75.368-112.592 26.507-161.452a100.706 100.706 0 0 0-142.423 0c-48.86 48.86-34.935 130.953 26.508 161.452v12.533h-.983a6 6 0 0 0-6 6v22.164a19.388 19.388 0 0 0 19.346 19.346h6.989v8.586A19.388 19.388 0 0 0 249.994 502h12.012a19.289 19.289 0 0 0 13.667-5.678c6.676-6.676 5.679-13.651 5.679-22.254zm-12 8.586a7.383 7.383 0 0 1-7.346 7.346h-12.012a7.382 7.382 0 0 1-7.346-7.346v-8.586h26.7v8.586zm26.335-27.932a7.384 7.384 0 0 1-7.346 7.346h-64.682a7.382 7.382 0 0 1-7.346-7.346v-16.164h79.374zM32.26 290.093a61.738 61.738 0 1 1 102.948 0 62.132 62.132 0 0 0-31.088-24.413c17.919-18.078 5.039-48.91-20.386-48.91s-38.3 30.832-20.385 48.91a62.127 62.127 0 0 0-31.089 24.413zm94.886 9.8c-18.917-34.205-67.907-34.2-86.824 0a61.733 61.733 0 0 0 86.824 0zm-43.412-71.124c-14.841 0-22.3 18.024-11.812 28.516 10.478 10.477 28.516 3.045 28.516-11.812a16.7 16.7 0 0 0-16.7-16.7zM31.6 203.863a73.733 73.733 0 1 1 0 104.274 73.731 73.731 0 0 1 0-104.274zm345.2 86.23a61.738 61.738 0 1 1 102.948 0 62.132 62.132 0 0 0-31.088-24.413c17.919-18.078 5.039-48.91-20.385-48.91s-38.305 30.831-20.386 48.91a62.131 62.131 0 0 0-31.089 24.414zm94.886 9.8c-18.917-34.205-67.907-34.2-86.823 0a61.732 61.732 0 0 0 86.823 0zm-43.411-71.122c-14.842 0-22.305 18.024-11.813 28.516 10.478 10.477 28.517 3.045 28.517-11.812a16.7 16.7 0 0 0-16.7-16.7zm-52.138-24.906a73.733 73.733 0 1 1 0 104.274 73.731 73.731 0 0 1 0-104.274zm-171.6-86.036a62.13 62.13 0 0 1 31.089-24.415C217.7 75.335 230.576 44.5 256 44.5s38.305 30.833 20.386 48.91a62.14 62.14 0 0 1 31.088 24.414 61.738 61.738 0 1 0-102.948 0zm94.886 9.8a61.734 61.734 0 0 1-86.824 0c18.917-34.2 67.907-34.206 86.824 0zM256 56.5a16.7 16.7 0 0 1 16.7 16.7c0 14.858-18.039 22.29-28.516 11.813C233.7 74.526 241.159 56.5 256 56.5zm-52.137-24.9a73.733 73.733 0 1 1 0 104.274 73.73 73.73 0 0 1 0-104.274zM419.92 162.289a5.994 5.994 0 0 1-10.406 5.954 177.849 177.849 0 0 0-65.752-65.754 5.994 5.994 0 1 1 5.953-10.406 189.565 189.565 0 0 1 70.205 70.206zM92.082 349.715a5.994 5.994 0 0 1 10.406-5.953 177.682 177.682 0 0 0 86.1 75.735 5.98 5.98 0 1 1-4.547 11.062 189.385 189.385 0 0 1-91.958-80.844zm235.878 80.844a5.98 5.98 0 0 1-4.547-11.063 177.654 177.654 0 0 0 86.1-75.734 5.994 5.994 0 0 1 10.406 5.953 189.35 189.35 0 0 1-91.959 80.844z" fill="#00bbff" opacity="1" data-original="#00bbff"></path></g></svg>