<svg xmlns="http://www.w3.org/2000/svg" version="1.1" xmlns:xlink="http://www.w3.org/1999/xlink" width="512" height="512" x="0" y="0" viewBox="0 0 32 32" style="enable-background:new 0 0 512 512" xml:space="preserve" class=""><g transform="matrix(1.04,0,0,1.04,-0.6399925231933601,-0.6399575042724592)"><path d="M4 23h8a1 1 0 0 0 0-2H4a1 1 0 0 1-1-1V7.74l9.485 5.535a3.035 3.035 0 0 0 3.023 0L25 7.737V13a1 1 0 0 0 2 0V6a3.003 3.003 0 0 0-3-3H4a3.063 3.063 0 0 0-3 3v14a3.003 3.003 0 0 0 3 3zM4 5h20a.988.988 0 0 1 .852.508L14.5 11.549a1.004 1.004 0 0 1-1.006 0L3.146 5.512A.988.988 0 0 1 4 5z" fill="#00bbff" opacity="1" data-original="#00bbff" class=""></path><path d="M13.007 28.006a.999.999 0 0 0 .684.948 1.046 1.046 0 0 0 1.116-.348 9.043 9.043 0 0 1 7.2-3.6v3a1.012 1.012 0 0 0 1.65.759l7-6a1.012 1.012 0 0 0 0-1.518l-7-6a1.01 1.01 0 0 0-1.65.759v3a9.01 9.01 0 0 0-9 9zm2.672-2.992a7.01 7.01 0 0 1 6.328-4.008h1a1 1 0 0 0 1-1v-1.827l4.464 3.827-4.464 3.826v-1.826a1 1 0 0 0-1-1h-1a11.047 11.047 0 0 0-6.328 2.008z" fill="#00bbff" opacity="1" data-original="#00bbff" class=""></path></g></svg>