<svg xmlns="http://www.w3.org/2000/svg" version="1.1" xmlns:xlink="http://www.w3.org/1999/xlink" width="512" height="512" x="0" y="0" viewBox="0 0 512 512" style="enable-background:new 0 0 512 512" xml:space="preserve" class=""><g><path d="M484.915 320.267c-4.495-7.507-22.926-29.805-71.404-1.572l-84.807 49.396c-3.861 2.248-7.782 3.891-11.854 4.944 1.415-2.471 2.541-5.217 3.345-8.216 2.28-8.51.952-17.723-3.644-25.275-4.403-7.238-11.264-12.197-19.316-13.963-24.995-5.481-49.69-14.008-69.533-20.86-6.146-2.122-11.95-4.126-16.91-5.734-21.889-7.1-41.633 1.665-58.062 11.176l-62.68 36.291-5.713-10.094c-5.563-9.832-18.091-13.306-27.92-7.738l-23.795 13.467c-9.83 5.563-13.302 18.088-7.738 27.919L94.84 493.613c3.765 6.652 10.716 10.393 17.864 10.393 3.415 0 6.877-.854 10.056-2.654l23.794-13.467c4.751-2.688 8.174-7.078 9.638-12.361 1.465-5.283.79-10.809-1.898-15.559l-6.981-12.335 13.804-7.97 108.432 29.055c6.034 1.617 12.037 2.421 17.941 2.42 11.942 0 23.479-3.287 34.024-9.779l153.905-94.769c14.238-8.766 18.765-30.844 9.496-46.32zM140.773 471.25a4.45 4.45 0 0 1-2.1 2.71l-23.795 13.468c-2.114 1.198-4.916.422-6.115-1.695L38.809 362.125c-1.198-2.117-.422-4.917 1.694-6.115l23.795-13.467a4.386 4.386 0 0 1 2.166-.563c1.578 0 3.134.819 3.949 2.259l9.729 17.19.002.003.001.002 60.224 106.412a4.45 4.45 0 0 1 .404 3.404zM467.03 352.962 313.125 447.73c-12.088 7.442-25.356 9.303-39.436 5.529l-111.633-29.912a7.99 7.99 0 0 0-6.07.8l-16.555 9.558-41.501-73.329 62.815-36.369c14.05-8.135 29.241-14.95 45.108-9.804 4.817 1.562 10.553 3.543 16.624 5.64 20.236 6.987 45.421 15.684 71.329 21.365 3.742.82 6.965 3.183 9.075 6.65 2.334 3.837 3.011 8.509 1.856 12.818-2.884 10.766-11.878 12.115-19.049 11.295-12.468-2.565-24.325-5.948-36.87-9.531-5.96-1.702-12.122-3.462-18.458-5.16-4.264-1.14-8.654 1.39-9.798 5.657a8 8 0 0 0 5.657 9.798c6.209 1.663 12.307 3.405 18.204 5.09 12.952 3.699 25.186 7.192 38.368 9.888.052.011.104.014.156.024.055.01.107.026.163.035l10.547 1.715c15.888 2.543 29.982.063 43.097-7.572l84.808-49.396c24.159-14.07 42.711-15.579 49.625-4.033 4.751 7.932 2.653 20.284-4.157 24.476zM70.969 366.003a8.495 8.495 0 0 1-7.178 9.635 8.495 8.495 0 0 1-2.458-16.812 8.497 8.497 0 0 1 9.636 7.177zm249.491-211.2V90.751a8 8 0 0 1 16 0v59.433l42.353 24.454a8 8 0 0 1-4.008 14.929 7.966 7.966 0 0 1-3.992-1.073L324.46 161.73a7.995 7.995 0 0 1-4-6.927zm-251.519 5.373 13.312 5.124a96.1 96.1 0 0 0 8.442 20.364l-5.794 13.044a8 8 0 0 0 1.655 8.904l19.798 19.797a8.004 8.004 0 0 0 8.903 1.654l13.05-5.796a96.033 96.033 0 0 0 20.357 8.44l5.125 13.316a8 8 0 0 0 7.466 5.126h27.997a8 8 0 0 0 7.466-5.126l5.124-13.312c.447-.127.889-.268 1.333-.401 26.614 43.521 74.004 70.296 125.284 70.296 80.947 0 146.803-65.855 146.803-146.804C475.263 73.855 409.407 8 328.46 8c-40.277 0-78.989 16.718-106.649 45.944a96.012 96.012 0 0 0-19.967-8.23l-5.125-13.315a8 8 0 0 0-7.466-5.126h-27.997a7.999 7.999 0 0 0-7.466 5.126l-5.126 13.315a96.107 96.107 0 0 0-20.357 8.44l-13.05-5.796a7.993 7.993 0 0 0-8.904 1.655L86.556 69.812a7.999 7.999 0 0 0-1.654 8.903l5.795 13.048a96.036 96.036 0 0 0-8.44 20.359l-13.314 5.125a8 8 0 0 0-5.126 7.466v27.997a7.997 7.997 0 0 0 5.124 7.466zm390.322-5.373c0 72.125-58.678 130.804-130.803 130.804-44.759 0-86.208-22.889-110.175-60.281a96.26 96.26 0 0 0 3.922-2.056l13.044 5.794a7.984 7.984 0 0 0 4.811.528c21.9 25.815 54.38 41.022 88.398 41.022 63.857 0 115.81-51.952 115.81-115.811 0-63.857-51.952-115.81-115.81-115.81a115.646 115.646 0 0 0-70.999 24.326l-10.665-10.665C269.833 34.268 298.667 24 328.46 24c72.125 0 130.803 58.678 130.803 130.803zm-193.656 43.905-5.797-13.05a96.011 96.011 0 0 0 8.44-20.357l13.316-5.125a8 8 0 0 0 5.126-7.466v-27.998a8 8 0 0 0-5.127-7.466l-13.311-5.123a96.113 96.113 0 0 0-8.442-20.365l5.794-13.043c.05-.112.077-.229.122-.342.08-.205.158-.41.22-.62a7.83 7.83 0 0 0 .138-.558c.028-.128.073-.253.095-.383a99.658 99.658 0 0 1 62.277-21.819c55.035 0 99.81 44.774 99.81 99.81s-44.774 99.811-99.81 99.811c-29.308 0-57.293-13.1-76.17-35.339l11.663-11.662a8 8 0 0 0 1.656-8.905zM79.815 130.206l12.014-4.625a7.997 7.997 0 0 0 4.908-5.613 80.165 80.165 0 0 1 9.746-23.509 8.001 8.001 0 0 0 .5-7.442l-5.229-11.776 12.029-12.029 11.777 5.23a8 8 0 0 0 7.441-.499 80.181 80.181 0 0 1 23.508-9.747 7.997 7.997 0 0 0 5.613-4.908l4.625-12.015h17.012l4.625 12.015a7.999 7.999 0 0 0 5.613 4.908 80.19 80.19 0 0 1 23.508 9.747 8 8 0 0 0 7.441.499l4.215-1.872.006-.002 4.995-2.219 2.562-1.138 12.029 12.028-5.229 11.771a8.003 8.003 0 0 0 .5 7.443 80.127 80.127 0 0 1 9.747 23.513 7.996 7.996 0 0 0 4.91 5.615l12.011 4.623v17.012l-12.016 4.625a7.999 7.999 0 0 0-4.908 5.613 80.198 80.198 0 0 1-9.746 23.507 8.001 8.001 0 0 0-.5 7.442l5.231 11.778-12.029 12.028-11.772-5.229a7.996 7.996 0 0 0-7.442.5 80.166 80.166 0 0 1-23.513 9.748 7.996 7.996 0 0 0-5.614 4.908l-4.624 12.012h-17.011l-4.625-12.016a7.999 7.999 0 0 0-5.613-4.908 80.186 80.186 0 0 1-23.508-9.747 7.997 7.997 0 0 0-7.441-.499l-11.778 5.23-12.029-12.028 5.229-11.772a8.001 8.001 0 0 0-.5-7.442 80.197 80.197 0 0 1-9.748-23.514 7.997 7.997 0 0 0-4.908-5.613l-12.011-4.623v-17.01zm95.439 65.332c31.335 0 56.827-25.492 56.827-56.826 0-31.335-25.492-56.828-56.827-56.828s-56.827 25.493-56.827 56.828c0 31.334 25.492 56.826 56.827 56.826zm0-97.654c22.512 0 40.827 18.315 40.827 40.828 0 22.512-18.315 40.826-40.827 40.826s-40.827-18.314-40.827-40.826c0-22.513 18.315-40.828 40.827-40.828z" fill="#00ffff" opacity="1" data-original="#00ffff" class=""></path></g></svg>